<svg width="195" height="51" viewBox="0 0 195 51" fill="none" xmlns="http://www.w3.org/2000/svg">
<path d="M144.13 0.269215C144.13 0.417381 144.177 0.510216 144.234 0.475513C144.292 0.440811 144.41 0.580135 144.498 0.785114C144.59 1.00135 144.733 1.15781 144.837 1.15781C144.98 1.15781 144.991 1.18877 144.892 1.30548C144.796 1.41892 144.799 1.46375 144.906 1.4989C145.015 1.53489 145.011 1.58566 144.884 1.7368C144.76 1.88322 144.754 1.93948 144.857 1.97323C144.931 1.99759 144.991 2.06374 144.991 2.12024C144.991 2.17673 144.943 2.19401 144.885 2.15863C144.824 2.12175 144.806 2.16401 144.842 2.25769C144.878 2.34755 144.851 2.42107 144.784 2.42107C144.694 2.42107 144.692 2.47819 144.776 2.63161C144.868 2.80072 144.858 2.84215 144.722 2.84215C144.585 2.84215 144.578 2.86922 144.687 2.98327C144.826 3.12917 145.097 2.99872 145.062 2.80267C145.052 2.75201 145.102 2.69009 145.171 2.66507C145.254 2.63515 145.276 2.69933 145.235 2.8526C145.201 2.98075 145.217 3.06045 145.27 3.02969C145.324 2.99893 145.465 3.00861 145.583 3.0512C145.754 3.11261 145.704 3.14449 145.341 3.20519C145.056 3.25292 144.884 3.3377 144.884 3.43039C144.884 3.51215 144.789 3.57904 144.674 3.57904C144.559 3.57904 144.399 3.67156 144.318 3.78464C144.173 3.98737 143.624 4.26403 143.447 4.22423C143.396 4.21298 143.081 4.27135 142.747 4.35392C142.412 4.4365 141.835 4.53746 141.465 4.57827C141.095 4.61908 140.765 4.69519 140.732 4.74739C140.699 4.79959 140.566 4.84336 140.436 4.84466C140.307 4.84599 139.91 4.98701 139.555 5.15812C139.199 5.32922 138.827 5.47027 138.727 5.47157C138.626 5.4729 138.515 5.5213 138.478 5.5792C138.441 5.6371 138.466 5.68447 138.533 5.68447C138.682 5.68447 138.628 6.15528 138.478 6.16551C138.419 6.16954 138.158 6.23229 137.898 6.30497C137.639 6.37764 137.308 6.40808 137.164 6.37262C137.019 6.33715 136.747 6.35455 136.559 6.41125C136.371 6.46796 135.947 6.56609 135.616 6.62932C134.71 6.80283 134.226 6.94777 134.226 7.04568C134.226 7.14716 139.748 7.07635 141.116 6.95734C141.836 6.89465 142.111 6.91179 142.407 7.03791C142.615 7.12602 142.808 7.20496 142.838 7.21333C142.868 7.2217 143.033 7.28572 143.207 7.35561C143.38 7.42549 143.598 7.45358 143.691 7.41801C143.784 7.38244 145.217 7.33634 146.875 7.31555C148.533 7.29477 150.108 7.23058 150.374 7.17293C150.64 7.11528 151.439 7.01311 152.148 6.94589C152.858 6.87867 153.531 6.77515 153.644 6.71587C153.758 6.65658 154.087 6.6303 154.376 6.65747C154.665 6.68465 154.928 6.66556 154.96 6.61504C154.992 6.56453 155.063 6.55046 155.118 6.58377C155.173 6.61708 155.218 6.59418 155.218 6.53286C155.218 6.47154 155.255 6.43077 155.299 6.44226C155.478 6.4886 156.403 6.29707 156.403 6.21363C156.403 6.11088 157.216 5.94009 157.523 5.97825C157.637 5.99229 157.82 5.90825 157.931 5.79149C158.043 5.67473 158.216 5.5736 158.318 5.56676C158.419 5.55993 158.793 5.54411 159.148 5.53162C159.503 5.51915 159.988 5.45423 160.224 5.38739C160.461 5.32054 160.838 5.23922 161.062 5.20667C161.286 5.17411 161.442 5.10591 161.41 5.05511C161.31 4.89656 161.549 4.85503 163.42 4.70628C163.519 4.69839 163.592 4.64705 163.581 4.5922C163.57 4.53736 163.659 4.46461 163.777 4.43053C163.896 4.39646 164.115 4.28722 164.264 4.18778C164.46 4.05771 164.868 3.98799 165.718 3.93927C166.367 3.90202 167.011 3.87651 167.148 3.88256C167.285 3.88861 167.546 3.81834 167.727 3.72638C167.915 3.63142 168.087 3.60091 168.125 3.65575C168.217 3.79041 168.596 3.91975 168.513 3.78838C168.426 3.64993 168.531 3.65702 168.817 3.80896C169.396 4.1156 172.135 3.88251 172.42 3.50232C172.509 3.38462 172.518 3.30522 172.447 3.282C172.386 3.26203 172.336 3.20375 172.336 3.15249C172.336 3.10124 172.404 3.08472 172.486 3.11581C172.569 3.14689 172.669 3.12172 172.708 3.05987C172.812 2.8947 172.167 2.91866 171.819 3.09288C171.659 3.17289 171.31 3.27321 171.044 3.31583C170.777 3.35846 170.475 3.40871 170.371 3.42751C170.267 3.44631 170.183 3.39964 170.183 3.32379C170.183 3.22625 170.049 3.19616 169.725 3.22094C169.371 3.24802 169.311 3.23145 169.458 3.14787C169.563 3.08841 169.625 3.0014 169.595 2.95452C169.531 2.85342 170.133 2.75174 171.298 2.66679C171.953 2.6191 172.166 2.63798 172.239 2.74994C172.307 2.855 172.333 2.85864 172.334 2.76319C172.337 2.56938 172.984 2.60068 173.215 2.80582C173.324 2.90164 173.412 2.93523 173.412 2.88046C173.412 2.82005 173.762 2.80933 174.301 2.85323C174.789 2.89303 175.552 2.9517 175.996 2.9836C176.44 3.0155 176.963 3.09668 177.157 3.16399C177.352 3.2313 177.631 3.26384 177.779 3.23628C177.926 3.20873 178.077 3.23457 178.115 3.29361C178.156 3.35965 178.128 3.36822 178.042 3.31586C177.954 3.26288 177.927 3.27203 177.97 3.34009C178.051 3.46836 178.564 3.58455 179.172 3.61213C179.53 3.6284 179.605 3.66959 179.614 3.85786C179.625 4.06005 179.55 4.09261 178.915 4.1647C178.523 4.20905 178.082 4.23509 177.934 4.22256L177.665 4.19978L177.95 4.35161C178.446 4.61489 178.929 4.72599 179.872 4.79353C180.375 4.82958 181.102 4.93644 181.487 5.03099C182.372 5.24848 185.443 5.26516 185.577 5.05321C185.623 4.98027 185.718 4.95503 185.788 4.99712C185.968 5.10582 187.949 5.14242 187.881 5.0358C187.818 4.93607 187.834 4.93438 189.243 4.89258C190.237 4.86308 190.656 4.82711 192.144 4.64381C192.823 4.56024 193.22 4.60811 193.608 4.82037C193.77 4.90926 193.735 4.95981 193.344 5.20129C193.029 5.39606 192.643 5.51062 192.061 5.58254C191.068 5.70528 190.121 5.8599 189.438 6.01062C189.03 6.10077 188.949 6.15649 188.991 6.31646C189.022 6.43128 189.106 6.48869 189.195 6.45545C189.278 6.42431 189.345 6.45127 189.345 6.51537C189.345 6.57946 189.261 6.63263 189.157 6.63351C188.996 6.63485 188.992 6.64995 189.13 6.73717C189.232 6.80171 189.243 6.83982 189.16 6.84084C189.088 6.84179 189.057 6.91351 189.091 7.00092C189.135 7.11122 189.027 7.2143 188.738 7.33995L188.323 7.52049L189.375 7.58396C189.953 7.61886 190.716 7.64262 191.07 7.63676C191.424 7.63089 191.714 7.63201 191.714 7.63926C191.714 7.64648 191.617 7.76165 191.499 7.89517C191.38 8.02869 191.283 8.1059 191.283 8.06675C191.283 8.02761 191.174 8.06542 191.041 8.15091C190.907 8.23634 190.439 8.36073 190 8.42732C189.561 8.49392 189.01 8.6146 188.776 8.6955C188.541 8.77641 188.174 8.8443 187.959 8.84636C187.36 8.85212 185.85 9.2361 186.286 9.27174C186.34 9.27617 186.482 9.3016 186.6 9.32824C186.719 9.35489 186.875 9.38937 186.947 9.40487C187.193 9.45767 187.209 9.56013 186.982 9.6307C186.857 9.66943 186.628 9.81587 186.473 9.95612C186.319 10.0964 186.084 10.2111 185.952 10.2111C185.82 10.2111 185.656 10.2762 185.589 10.3558C185.488 10.4748 185.577 10.5129 186.087 10.5697C186.428 10.6078 186.853 10.6618 187.031 10.6899C187.453 10.7566 189.135 10.7469 189.251 10.6771C189.406 10.583 190.637 10.5386 190.637 10.6271C190.637 10.6736 190.565 10.7707 190.476 10.8428C190.387 10.9148 190.314 11.0233 190.314 11.0837C190.314 11.1442 190.346 11.1625 190.385 11.1244C190.424 11.0863 190.521 11.1079 190.6 11.1724C190.68 11.2373 190.745 11.2447 190.745 11.189C190.745 11.1337 190.818 11.0884 190.906 11.0884C191.165 11.0884 191.094 11.2011 190.739 11.3549C190.339 11.5279 190.396 11.6004 191.041 11.7376C191.628 11.8627 191.74 12.0588 191.319 12.2248C190.883 12.3967 188.834 12.6197 187.664 12.6229C187.115 12.6244 186.537 12.6571 186.38 12.6956L186.094 12.7657L186.401 13.0111C186.57 13.146 186.79 13.2581 186.89 13.2602C187.145 13.2655 187.223 13.4329 187.086 13.683C186.941 13.9471 186.005 14.422 185.629 14.422C185.47 14.422 185.378 14.4674 185.416 14.5272C185.453 14.5851 185.571 14.6325 185.68 14.6325C185.862 14.6325 186.065 14.8953 186.025 15.0799C185.985 15.2676 187.693 15.0577 187.836 14.8575C187.945 14.7046 190.694 14.305 190.964 14.4027L191.221 14.4958L190.971 14.6268C190.833 14.6989 189.939 14.8853 188.983 15.0411C187.235 15.3261 186.809 15.5273 187.955 15.5273C188.307 15.5273 188.631 15.5874 188.736 15.6724C188.886 15.793 189.093 15.7963 189.965 15.6921C191.569 15.5006 192.501 15.3691 192.72 15.3034C192.864 15.2599 192.908 15.2911 192.881 15.4191C192.842 15.6056 192.509 15.8245 191.987 16.0069C191.537 16.1638 191.817 16.3022 192.391 16.2073C192.64 16.1661 193.062 16.0991 193.329 16.0583L193.813 15.9841L193.409 16.3625C193.187 16.5705 193.006 16.7577 193.006 16.7784C193.006 16.7991 193.306 16.8492 193.673 16.8899C194.541 16.9859 195.006 17.2239 195 17.5695C194.997 17.7518 194.3 17.9963 193.652 18.0427C193.386 18.0618 192.78 18.1527 192.306 18.2447C191.832 18.3366 191.106 18.4332 190.691 18.4593C190.276 18.4853 189.647 18.5565 189.291 18.6175C187.086 18.9963 186.589 19.0895 186.494 19.1428C186.436 19.1756 186.605 19.2542 186.871 19.3174C187.138 19.3811 187.354 19.4941 187.354 19.5707C187.354 19.7478 186.269 20.1326 185.284 20.3047C184.805 20.3884 184.451 20.513 184.334 20.6384C184.231 20.7506 183.87 20.8921 183.514 20.9607C182.705 21.1163 182.727 21.264 183.606 21.5815C183.794 21.6496 183.926 21.7601 183.9 21.8271C183.839 21.9795 183.34 22.212 183.074 22.212C182.963 22.212 182.903 22.2594 182.94 22.3173C182.977 22.3752 183.367 22.4226 183.808 22.4226C184.533 22.4226 184.825 22.5302 184.474 22.6687C184.16 22.7924 185.732 22.7254 186.508 22.582C187.474 22.4033 188 22.4781 188 22.7941C188 22.9398 187.719 23.1311 186.943 23.513C186.212 23.8727 185.93 24.0609 186.028 24.1227C186.214 24.2402 186.03 24.3603 185.308 24.5935C184.289 24.9226 183.481 25.4744 183.587 25.7683C183.659 25.969 183.262 26.0785 181.621 26.3102C180.805 26.4253 179.988 26.5925 179.806 26.6816C179.623 26.7707 179.236 26.8715 178.946 26.9055C178.146 26.9992 176.615 27.3779 176.376 27.5412C176.259 27.6209 176.017 27.6895 175.838 27.6935C175.658 27.6976 175.415 27.7416 175.296 27.7914C175.125 27.8634 175.169 27.885 175.512 27.8974C176.429 27.9304 176.916 28.0189 177.038 28.1747C177.121 28.281 177.251 28.3137 177.415 28.2696C177.63 28.2118 177.638 28.2187 177.474 28.319C177.37 28.3831 177.2 28.4221 177.098 28.4056C176.995 28.3891 176.846 28.4156 176.766 28.4644C176.681 28.5169 176.513 28.4964 176.356 28.4142C176.149 28.3059 176.046 28.3027 175.887 28.3996C175.758 28.4783 175.659 28.4861 175.618 28.4209C175.582 28.3641 175.277 28.3161 174.94 28.314C174.603 28.312 174.206 28.2426 174.058 28.1598C173.736 27.9796 173.628 27.9663 173.628 28.1072C173.628 28.1651 173.703 28.2125 173.796 28.2125C173.888 28.2125 173.937 28.2545 173.904 28.3058C173.872 28.3571 173.947 28.425 174.071 28.4567C174.195 28.4884 174.275 28.5767 174.25 28.6529C174.202 28.7935 173.72 28.8759 172.228 28.9983C170.881 29.1088 170.506 29.1683 170.506 29.2716C170.506 29.326 170.578 29.3705 170.667 29.3705C170.757 29.3705 170.829 29.464 170.829 29.581C170.829 29.7354 170.757 29.7915 170.559 29.7915C170.25 29.7915 170.197 29.9537 170.483 30.0268C170.589 30.0538 171.134 30.0507 171.694 30.0198C173.326 29.9297 173.978 29.9597 174.32 30.1403C174.493 30.2321 174.666 30.2884 174.704 30.2654C174.742 30.2425 174.753 30.3571 174.728 30.5201C174.675 30.8757 174.826 30.9312 175.932 30.961C176.593 30.9788 176.645 30.9947 176.415 31.1112C176.037 31.3029 174.649 31.578 173.822 31.6254C173.399 31.6496 173 31.736 172.856 31.8344C172.55 32.0439 172.366 32.0465 172.159 31.8443C172.066 31.7534 171.807 31.6874 171.548 31.6887C170.75 31.6927 167.773 31.9888 167.368 32.1043C166.991 32.2122 166.98 32.2296 167.059 32.5749C167.109 32.7924 167.098 32.9763 167.03 33.0424C166.954 33.1174 166.957 33.196 167.041 33.2951C167.298 33.5981 166.971 33.6609 165.4 33.6098C164.179 33.5701 163.799 33.5919 163.551 33.7154C163.289 33.8461 162.107 34.0263 161.301 34.0586C161.183 34.0633 160.844 34.1096 160.547 34.1613L160.009 34.2554L160.494 34.332C160.76 34.3741 161.559 34.3844 162.27 34.3549C162.98 34.3254 163.998 34.3075 164.531 34.3152C165.064 34.3229 166.105 34.2521 166.845 34.1578C168.31 33.9712 169.82 33.8406 170.47 33.8445C170.697 33.8458 170.913 33.8055 170.95 33.755C170.987 33.7044 171.169 33.657 171.354 33.6496C171.539 33.6422 171.69 33.5969 171.69 33.549C171.69 33.5011 171.799 33.4918 171.932 33.5285C172.122 33.5806 172.139 33.5711 172.013 33.4845C171.874 33.3892 171.877 33.3738 172.04 33.3724C172.143 33.3714 172.228 33.3179 172.228 33.2534C172.228 33.1813 172.331 33.2016 172.493 33.306C172.788 33.4948 172.917 33.5245 172.828 33.3827C172.795 33.3314 172.865 33.2648 172.983 33.2347C173.105 33.2033 173.197 33.232 173.197 33.3017C173.197 33.3722 173.367 33.4234 173.601 33.4234C173.857 33.4234 173.995 33.3773 173.979 33.2968C173.962 33.2097 174.078 33.1858 174.351 33.22C174.8 33.2761 175.242 33.5214 175.244 33.7153C175.245 33.7982 175.283 33.7879 175.35 33.6866C175.431 33.564 175.455 33.595 175.456 33.8251C175.458 34.2048 175.281 34.5287 175.071 34.5287C174.981 34.5287 174.937 34.5761 174.973 34.634C175.01 34.6919 174.952 34.7429 174.845 34.7473C174.49 34.762 174.265 34.8258 174.025 34.9795C173.81 35.1173 173.305 35.0643 173.305 34.9039C173.305 34.8749 173.37 34.8755 173.449 34.9054C173.528 34.9352 173.661 34.8772 173.745 34.7766C173.876 34.619 173.876 34.6062 173.744 34.6838C173.626 34.7531 173.608 34.7294 173.667 34.5809C173.712 34.4654 173.687 34.3533 173.604 34.302C173.398 34.1742 173.225 34.1983 173.412 34.3287C173.534 34.4132 173.471 34.4271 173.16 34.3847C172.932 34.3536 172.659 34.3822 172.55 34.4487C172.401 34.5396 172.315 34.5377 172.196 34.4409C172.068 34.3377 172.022 34.3491 171.954 34.4999C171.908 34.6027 171.879 34.7223 171.888 34.7657C171.897 34.8091 171.836 34.8447 171.753 34.8447C171.669 34.8447 171.582 34.8989 171.559 34.9651C171.536 35.0313 171.376 35.1003 171.202 35.1184C171.028 35.1365 170.832 35.2237 170.766 35.3122C170.7 35.4007 170.606 35.4382 170.558 35.3957C170.51 35.3532 170.502 35.4013 170.539 35.5026C170.622 35.7294 170.416 35.7506 170.327 35.5244C170.271 35.3806 170.24 35.3825 170.062 35.5407C169.871 35.7096 169.859 35.7084 169.858 35.519C169.857 35.3509 169.839 35.344 169.752 35.4763C169.596 35.7117 169.619 35.763 169.907 35.8337C170.089 35.8786 170.164 35.9654 170.152 36.1198C170.133 36.3656 169.758 36.5494 169.326 36.5246C168.923 36.5015 168.568 36.6369 168.568 36.8135C168.568 36.9272 168.461 36.9606 168.164 36.9394C167.73 36.9084 167 37.0269 166.738 37.1709C166.607 37.2425 166.618 37.2611 166.791 37.2677C166.91 37.2722 167.249 37.2981 167.545 37.3252C168.46 37.4092 169.678 37.4065 170.117 37.3196C170.419 37.26 170.516 37.2701 170.462 37.3554C170.415 37.4287 170.444 37.4523 170.538 37.4173C170.626 37.3841 170.769 37.4804 170.883 37.65C171.022 37.857 171.04 37.9514 170.947 37.9817C170.86 38.0102 170.881 38.0729 171.011 38.1729C171.188 38.3087 171.177 38.317 170.882 38.267C170.705 38.2368 170.62 38.24 170.694 38.2741C170.967 38.3998 170.816 38.5292 170.398 38.5292C170.126 38.5292 169.967 38.4806 169.966 38.3976C169.964 38.3007 169.94 38.3037 169.871 38.4088C169.813 38.4985 169.754 38.5118 169.711 38.4445C169.639 38.3302 169.502 38.3391 169.165 38.4799C169.05 38.5282 168.796 38.5709 168.602 38.5748C168.156 38.5836 168.011 38.845 168.452 38.845C168.626 38.845 168.787 38.9134 168.822 39.0029C168.864 39.1094 168.817 39.1608 168.677 39.1608C168.564 39.1608 168.432 39.22 168.385 39.2924C168.261 39.4811 167.823 39.7046 167.71 39.6364C167.657 39.6045 167.583 39.6266 167.546 39.6854C167.509 39.7443 167.345 39.7924 167.181 39.7924C167.018 39.7924 166.621 39.8693 166.3 39.9634C165.792 40.1118 165.746 40.1459 165.954 40.2219C166.085 40.2701 166.984 40.3031 167.951 40.2953C168.919 40.2874 169.773 40.3192 169.851 40.366C169.931 40.4144 170.023 40.4008 170.065 40.3345C170.152 40.1976 173.498 40.0938 173.581 40.2255C173.611 40.2717 173.71 40.2814 173.802 40.2469C173.915 40.2044 173.93 40.1606 173.848 40.1111C173.781 40.0709 173.874 40.038 174.054 40.038C174.234 40.038 174.381 40.0833 174.381 40.1387C174.381 40.194 174.455 40.1794 174.545 40.1061C174.635 40.0329 174.744 40.0066 174.786 40.0478C174.828 40.089 174.742 40.2122 174.595 40.3218L174.327 40.5209L174.596 40.4703C174.832 40.426 174.839 40.4321 174.65 40.5198C174.34 40.664 173.83 40.6491 173.53 40.487C173.239 40.329 172.874 40.3811 172.874 40.5806C172.874 40.6725 172.661 40.7138 172.174 40.7165C171.735 40.7189 171.474 40.6773 171.474 40.6047C171.474 40.5411 171.414 40.5667 171.34 40.6616C171.243 40.7862 170.951 40.8528 170.29 40.9016C169.787 40.9388 169.069 41.036 168.696 41.1177C168.322 41.1994 167.862 41.2708 167.673 41.2763C167.484 41.2819 167.087 41.3511 166.791 41.4302C166.287 41.5649 166.344 41.5703 167.706 41.5165C168.506 41.4849 169.233 41.4583 169.321 41.4573C169.41 41.4564 170.524 41.3445 171.797 41.2088C173.07 41.0731 174.458 40.9476 174.882 40.9299C175.305 40.9122 175.629 40.8622 175.602 40.8188C175.575 40.7754 175.761 40.7397 176.017 40.7394C176.272 40.7394 176.916 40.6704 177.449 40.5865C178.363 40.4427 180.513 40.2943 180.221 40.3953C180.146 40.421 180.113 40.4854 180.146 40.5383C180.18 40.5913 180.071 40.6369 179.905 40.6396C179.739 40.6423 179.433 40.7346 179.226 40.8445C179.018 40.9543 178.752 41.0884 178.634 41.1424C178.244 41.3199 171.895 42.347 170.398 42.4747C169.954 42.5125 168.67 42.6373 167.545 42.752C166.42 42.8667 164.935 43.0065 164.245 43.0627C163.555 43.1189 162.758 43.2335 162.473 43.3173C162.099 43.4274 161.934 43.4371 161.881 43.3523C161.813 43.2447 160.68 43.2742 159.309 43.4192C159.102 43.4411 158.448 43.4886 157.856 43.5248C156.794 43.5897 155.175 43.8081 154.269 44.0087C154.013 44.0654 153.758 44.0843 153.703 44.0508C153.647 44.0173 152.897 44.0943 152.036 44.2219C150.762 44.4107 150.424 44.4299 150.224 44.3249C150.022 44.2195 149.764 44.2372 148.803 44.4223C147.203 44.7306 145.116 45.1313 144.076 45.3298C143.602 45.4203 142.914 45.5614 142.547 45.6435C142.179 45.7257 141.719 45.7926 141.524 45.7923C141.329 45.7923 140.951 45.86 140.685 45.9434C140.236 46.0839 139.316 46.2399 136.863 46.5919C135.603 46.7727 135.349 46.8144 134.064 47.0519C133.472 47.1613 132.503 47.3291 131.911 47.4246C131.319 47.5202 130.689 47.6219 130.511 47.6506C129.254 47.8537 129.015 47.85 128.765 47.623C128.63 47.5006 128.52 47.3466 128.52 47.2809C128.52 47.2152 128.483 47.167 128.439 47.1739C128.395 47.1806 128.248 47.1806 128.112 47.1739C127.906 47.1634 127.884 47.1292 127.974 46.9647C128.106 46.7239 128 46.594 127.803 46.7541C127.581 46.9342 127.632 46.7722 127.887 46.485C128.021 46.3344 128.29 46.1993 128.538 46.1584C128.899 46.0986 128.94 46.0657 128.825 45.9293C128.651 45.7247 128.798 45.712 121.899 46.5282C121.425 46.5842 120.577 46.6528 120.015 46.6806C119.452 46.7083 118.435 46.7809 117.754 46.8419C117.073 46.9028 116.177 46.9714 115.762 46.9944C115.348 47.0173 114.817 47.0852 114.583 47.1451C114.349 47.2051 113.42 47.2571 112.519 47.2607C111.618 47.2642 110.816 47.2883 110.738 47.3141C110.544 47.3777 108.021 47.507 107.421 47.484C107.156 47.4738 106.864 47.3999 106.774 47.3198C106.571 47.1402 106.054 47.1222 103.651 47.211C102.547 47.2518 101.532 47.3446 101.199 47.4353C100.764 47.5537 100.044 47.5861 98.1309 47.5732C96.7559 47.5639 94.4681 47.5921 93.0471 47.6358C90.1673 47.7243 90.3212 47.7254 87.3413 47.5989C85.412 47.517 84.2989 47.5136 82.6044 47.5844C82.3084 47.5968 82.1509 47.6286 82.2546 47.655C82.3582 47.6815 82.443 47.7527 82.443 47.8132C82.443 47.8858 82.1408 47.9024 81.5548 47.8619C81.0663 47.8282 79.6008 47.7526 78.2982 47.6939C76.9956 47.6352 75.3242 47.5386 74.5841 47.4792C71.6105 47.2406 70.4765 47.1565 68.9321 47.0601C65.0698 46.819 63.0338 46.7229 60.9118 46.6816C59.9348 46.6626 58.7237 46.6148 58.2204 46.5754C57.7171 46.5359 56.9662 46.5079 56.5517 46.5131C56.1372 46.5182 55.3136 46.4759 54.7215 46.419C54.1294 46.362 52.2118 46.2946 50.4602 46.2691C48.7085 46.2436 47.0614 46.1765 46.7999 46.1201C46.5384 46.0637 45.9438 45.9918 45.4786 45.9605C45.0134 45.9291 44.4805 45.8791 44.2944 45.8493C43.6578 45.7475 42.664 45.6782 41.2107 45.6345C39.931 45.5959 38.6875 45.5034 36.8506 45.3101C36.5546 45.279 36.1428 45.2402 35.9356 45.2241C35.7283 45.2079 35.1954 45.1643 34.7514 45.1271C34.3073 45.09 33.5564 45.0306 33.0828 44.9952C32.6092 44.9598 32.1974 44.9162 32.1678 44.8983C32.1381 44.8805 31.8383 44.8373 31.5015 44.8023C31.1648 44.7673 30.8183 44.712 30.7316 44.6795C30.6449 44.6469 30.1453 44.6062 29.6214 44.5889C28.1824 44.5416 28.1843 44.5419 28.1843 44.3717C28.1843 44.2849 28.133 44.2138 28.0703 44.2138C28.0076 44.2138 27.9913 44.2692 28.0342 44.337C28.0872 44.4209 28.0522 44.4377 27.9241 44.3896C27.8207 44.3508 27.6293 44.3191 27.4987 44.3191C27.3384 44.3191 27.256 44.2506 27.2451 44.1085C27.2257 43.8569 27.2841 43.8448 27.5 44.0559C27.7253 44.2762 27.9774 44.2597 27.9017 44.0296C27.8644 43.9162 27.876 43.8906 27.932 43.963C27.9939 44.0432 28.2972 44.0582 28.8841 44.0102C29.8945 43.9277 30.657 43.9504 32.06 44.1049C32.6225 44.1668 33.3492 44.243 33.6748 44.2741C34.0005 44.3052 34.3235 44.3488 34.3926 44.3709C34.4617 44.393 34.5464 44.3392 34.5809 44.2514C34.6273 44.1332 34.7295 44.1102 34.975 44.163C35.3606 44.2458 35.6085 44.2773 36.6353 44.3739C37.0498 44.4129 37.4179 44.4623 37.4533 44.4836C37.5288 44.5289 38.9687 44.5364 40.9416 44.5016C42.1933 44.4796 43.0759 44.5398 43.7344 44.6923C44.1054 44.7782 46.7012 44.8154 46.7012 44.7348C46.7012 44.6933 46.3742 44.6252 45.9745 44.5834C45.5748 44.5415 45.1509 44.4886 45.0325 44.4658C44.2018 44.3055 41.9771 44.126 40.188 44.0747C39.7735 44.0629 39.3832 44.0211 39.3206 43.9819C39.2165 43.9167 35.9199 43.6653 35.743 43.7091C35.7009 43.7195 35.3031 43.6949 34.859 43.6544C34.1725 43.5918 32.4192 43.4658 31.9792 43.4474C31.8202 43.4408 31.8014 43.3049 31.9474 43.2167C32.0521 43.1534 32.8637 43.1388 33.5981 43.187C33.8223 43.2017 34.0451 43.2761 34.0933 43.3523C34.1584 43.4554 34.3434 43.4726 34.816 43.4195C35.1653 43.3803 35.4836 43.3293 35.5232 43.3063C35.5628 43.2833 35.6687 43.3363 35.7586 43.4241C35.8484 43.5119 35.9475 43.5432 35.9788 43.4936C36.0396 43.3974 38.2125 43.4384 38.8423 43.5476C39.0495 43.5836 39.4148 43.6227 39.654 43.6347C39.8933 43.6466 40.196 43.7124 40.3269 43.7809C40.5171 43.8804 40.5648 43.8772 40.5648 43.7648C40.5648 43.6821 40.7087 43.6129 40.9147 43.5966C41.7659 43.5295 42.9574 43.5359 43.9021 43.6126C44.5816 43.6678 44.8717 43.6609 44.7665 43.592C44.3421 43.3142 45.1383 43.1771 46.3782 43.3146C47.4774 43.4365 47.6739 43.4429 48.149 43.3724C48.3941 43.336 48.7378 43.3438 48.9128 43.3897C49.3739 43.5105 51.7703 43.7244 52.8376 43.74C53.3409 43.7474 54.0675 43.7858 54.4524 43.8254C54.8373 43.865 55.6124 43.9217 56.1749 43.9514C56.7374 43.9811 58.0697 44.0751 59.1355 44.1602C60.2012 44.2453 61.7865 44.3468 62.6583 44.3857C64.0789 44.4491 64.2504 44.4382 64.3121 44.2811C64.3707 44.1317 64.5578 44.1065 65.5799 44.1103C66.2394 44.1127 66.997 44.0763 67.2635 44.0294L67.7479 43.944L66.9405 43.8266C66.4964 43.762 65.9635 43.7105 65.7563 43.7121C65.549 43.7138 64.7012 43.6416 63.8723 43.552C63.0434 43.4623 61.4689 43.3361 60.3735 43.2714C59.2781 43.2068 58.2741 43.1312 58.1424 43.1035C58.0107 43.0758 56.9207 43.007 55.7201 42.9507C53.5625 42.8493 52.0506 42.7667 50.8998 42.6871C50.5741 42.6645 49.4569 42.5981 48.4172 42.5395C47.3774 42.4808 46.4569 42.4118 46.3717 42.386C46.2865 42.3602 46.1198 42.3033 46.0014 42.2595C45.883 42.2157 45.5999 42.1667 45.3722 42.1506C45.1446 42.1345 44.9022 42.0463 44.8335 41.9545C44.7344 41.8219 44.454 41.782 43.4711 41.7604C42.7904 41.7454 42.185 41.704 42.1258 41.6684C42.0666 41.6328 41.6548 41.5759 41.2107 41.5419C39.0879 41.3795 36.9657 41.2476 35.9894 41.2174C35.3973 41.199 34.1377 41.1013 33.1903 41.0002C32.243 40.8991 31.0319 40.8006 30.499 40.7814C26.8107 40.6484 23.8649 40.4809 22.3171 40.3162C21.7842 40.2594 20.8501 40.1826 20.2414 40.1453C19.6327 40.1081 19.109 40.0371 19.0778 39.9876C19.0465 39.9381 19.1812 39.8938 19.3771 39.8891C19.573 39.8844 19.8701 39.8709 20.0373 39.859C20.2044 39.8471 20.3622 39.8707 20.388 39.9115C20.4137 39.9522 20.6138 39.9372 20.8326 39.8781C21.0546 39.8182 21.5417 39.8014 21.9352 39.8402C22.3229 39.8784 24.3841 39.9282 26.5157 39.9509C28.6473 39.9736 31.1906 40.0227 32.1676 40.0601C33.909 40.1267 34.4025 40.086 33.2601 39.9699C32.9432 39.9376 32.6605 39.8884 32.6319 39.8604C32.5551 39.7853 32.9488 39.5995 33.2753 39.5568C33.6558 39.5069 33.7759 39.3736 33.4505 39.3622C33.3074 39.3571 32.5606 39.3089 31.7908 39.2549C31.0211 39.201 29.5072 39.1288 28.4266 39.0946C26.6502 39.0384 26.4618 39.0147 26.4618 38.8479C26.4618 38.6164 26.0285 38.5616 23.4165 38.4632C22.3633 38.4235 21.4763 38.351 21.4455 38.3022C21.4146 38.2533 21.177 38.2133 20.9176 38.2133C20.0331 38.2133 20.281 37.9226 21.3675 37.6858C21.6741 37.619 22.0859 37.573 22.2825 37.5837C23.5937 37.6547 23.2498 37.4474 21.7788 37.2801C21.1867 37.2127 20.3631 37.1346 19.9487 37.1066C19.5342 37.0786 18.7833 37.0084 18.28 36.9507C17.7767 36.893 16.7594 36.8145 16.0192 36.7763C15.1078 36.7293 14.6388 36.6624 14.5659 36.569C14.5062 36.4925 14.1221 36.4005 13.7046 36.3625C13.2901 36.3248 12.9026 36.2361 12.8434 36.1654C12.7841 36.0947 12.3819 36.0049 11.9494 35.9659C11.517 35.9268 11.0546 35.8253 10.9219 35.7402C10.7698 35.6428 10.3042 35.5685 9.66269 35.5393C8.27948 35.4763 7.19574 35.3577 7.13567 35.2627C7.07254 35.1628 8.01518 35.0201 8.16002 35.1076C8.21941 35.1435 8.26799 35.128 8.26799 35.0731C8.26799 35.0182 8.09842 34.9422 7.89119 34.9042C7.48204 34.8292 7.40468 34.6982 7.70277 34.5852C8.05455 34.4519 7.56226 34.2406 6.45551 34.0501C5.52591 33.89 4.93846 33.6922 5.36665 33.6835C5.76912 33.6752 5.14781 33.4896 4.50104 33.4249C4.11705 33.3865 3.74657 33.3094 3.67775 33.2535C3.60893 33.1977 3.24623 33.1037 2.87177 33.0448C1.83124 32.8809 1.8425 32.7493 2.90396 32.6677C3.30055 32.6372 3.66315 32.5469 3.77219 32.4515C3.92517 32.3176 4.11223 32.3015 4.79491 32.3639C6.18307 32.4906 6.45789 32.466 6.66623 32.1959C6.7682 32.0637 6.83066 31.9224 6.80507 31.8819C6.77946 31.8414 6.43204 31.7752 6.03299 31.7346C5.63394 31.6941 5.25899 31.6238 5.19977 31.5783C5.14056 31.5329 4.86203 31.4622 4.58078 31.4212C3.80891 31.3089 3.96732 31.1602 4.85887 31.1602C5.29311 31.1602 5.68503 31.1246 5.72986 31.0812C5.77467 31.0378 6.22624 31.0022 6.73332 31.0022C7.37448 31.0022 7.66934 30.9622 7.70145 30.8707C7.73311 30.7805 7.61778 30.7389 7.33498 30.7385C7.10799 30.7383 6.75273 30.6944 6.5455 30.6413C6.33826 30.5882 5.75862 30.5148 5.25745 30.4782C4.75626 30.4415 4.29155 30.3672 4.22479 30.3131C4.15804 30.2589 4.07518 30.2421 4.0407 30.2759C4.0062 30.3096 3.86531 30.2979 3.72763 30.2498C3.53433 30.1822 3.64905 30.147 4.23088 30.0953C4.9175 30.0342 5.70061 29.8805 6.11487 29.7256C6.37775 29.6274 5.96892 29.5193 4.74226 29.363C4.13536 29.2856 3.63879 29.1942 3.63879 29.1598C3.63879 29.1255 3.32388 29.117 2.93901 29.141C2.37665 29.176 2.23924 29.1543 2.23924 29.0307C2.23924 28.8399 2.58 28.5278 2.78601 28.53C2.91258 28.5313 2.91109 28.5492 2.77762 28.6336C2.6402 28.7205 2.64473 28.7359 2.80792 28.7373C2.91341 28.7383 3.02856 28.6654 3.06381 28.5756C3.11844 28.4364 3.3131 28.4203 4.37923 28.4672C5.71521 28.526 6.04358 28.4563 5.79744 28.1663C5.38521 27.6806 3.70416 27.1599 2.54855 27.1599C1.85037 27.1599 1.48573 27.0322 1.48573 26.7877C1.48573 26.6653 1.65797 26.634 2.32008 26.636C2.77898 26.6373 3.34819 26.6884 3.58504 26.7494C3.82188 26.8104 4.93782 26.8817 6.06488 26.908C8.05797 26.9543 8.11456 26.9499 8.13042 26.744C8.14603 26.5416 8.0146 26.3958 7.78363 26.3592C7.7244 26.3498 7.25998 26.2655 6.75153 26.1718C5.08759 25.8653 3.61014 25.6785 2.09799 25.5836C0.697006 25.4957 0.219223 25.3751 0.363983 25.1461C0.397034 25.0938 0.470352 25.079 0.526947 25.1132C0.583527 25.1474 0.616531 25.1126 0.60025 25.0359C0.583862 24.9588 0.654343 24.903 0.757919 24.911C0.860886 24.9189 0.92189 24.8886 0.893433 24.8435C0.86496 24.7985 1.00613 24.7315 1.20714 24.6947C1.6416 24.615 1.74463 24.4252 1.52211 24.1145C1.40353 23.949 1.39088 23.8503 1.47548 23.7507C1.6142 23.5872 1.52361 23.4754 1.2525 23.4754C1.14394 23.4754 1.05513 23.4556 1.05513 23.4313C1.05513 23.4071 1.02298 23.3054 0.983673 23.2052C0.918015 23.0379 0.990295 23.0288 1.87184 23.0929C2.39963 23.1313 3.01312 23.1909 3.23517 23.2253C3.55646 23.2751 3.63889 23.2543 3.63889 23.1237C3.63889 23.0334 3.71696 22.9167 3.81241 22.8645C4.05885 22.7296 3.91089 22.1231 3.60182 22.0012C3.38084 21.914 3.38 21.909 3.58504 21.8956C3.80035 21.8815 3.80035 21.8815 3.58504 21.791C3.37502 21.7028 3.6684 21.6651 4.76926 21.6388C5.22845 21.6278 5.57671 21.4861 5.57671 21.3102C5.57671 21.2162 5.68823 21.1589 5.87274 21.158C6.03555 21.157 6.27893 21.1277 6.41354 21.0924C6.64308 21.0323 6.64642 21.0195 6.46735 20.8866C6.36237 20.8087 6.14392 20.7435 5.98193 20.7417C5.81998 20.7398 5.36781 20.5725 4.97717 20.3699C4.58318 20.1655 4.11017 20.0014 3.91487 20.0014C3.26245 20.0014 2.24481 19.8674 2.29495 19.7881C2.32231 19.7448 2.2623 19.7159 2.16158 19.7238C2.06085 19.7317 1.96118 19.6566 1.94008 19.5568C1.89107 19.3252 2.52675 18.9259 2.85463 18.9823C2.98578 19.0049 3.11069 18.9717 3.13222 18.9085C3.18298 18.7596 4.43941 18.7175 4.94194 18.8479C5.15535 18.9033 6.25749 18.9614 7.39113 18.9771C9.30768 19.0036 9.87283 18.9499 9.15625 18.8092C8.99341 18.7773 8.6422 18.7029 8.37575 18.644C8.1093 18.585 7.68539 18.5347 7.43375 18.5322C7.1821 18.5297 6.97621 18.4802 6.97621 18.4223C6.97621 18.3644 6.90034 18.3171 6.80763 18.3171C6.71494 18.3171 6.53963 18.265 6.41811 18.2014C6.19948 18.087 6.19989 18.0844 6.4521 17.9615C6.89374 17.7461 6.75687 17.543 6.01465 17.3123C5.63383 17.1939 5.29959 17.0281 5.27185 16.9438C5.24413 16.8596 5.17859 16.7632 5.12625 16.7296C4.96159 16.6239 5.15871 16.2992 5.34508 16.3691C5.43924 16.4044 5.48659 16.4043 5.45026 16.3687C5.41393 16.3332 5.50632 16.1847 5.65559 16.0388C5.8519 15.8468 6.05435 15.7686 6.38766 15.756C6.6411 15.7464 6.82884 15.7076 6.8049 15.6697C6.78096 15.6318 7.22502 15.6241 7.7917 15.6524C8.61554 15.6937 8.8582 15.672 9.00258 15.5444C9.20308 15.3672 10.2604 15.2942 10.8119 15.4194C11.0224 15.4672 11.1761 15.4525 11.2219 15.38C11.2622 15.3163 11.4095 15.2642 11.5491 15.2642C11.873 15.2642 12.1437 15.1632 12.1437 15.0424C12.1437 14.9907 12.0735 14.9484 11.9876 14.9484C11.9017 14.9484 11.7903 14.8765 11.7401 14.7887C11.6834 14.6897 11.2626 14.5557 10.6313 14.4355C9.38745 14.1989 8.4718 13.8371 8.55838 13.6165C8.59163 13.5318 8.68777 13.4883 8.77202 13.5199C8.85628 13.5515 8.89813 13.5346 8.86507 13.4823C8.83197 13.4299 8.93192 13.2395 9.08716 13.0591C9.29491 12.8177 9.42651 12.7489 9.5858 12.7983C9.70575 12.8355 9.77522 12.8227 9.74164 12.7696C9.70831 12.7169 9.84953 12.6691 10.0555 12.6634C10.2614 12.6577 10.7699 12.5715 11.1855 12.4719L11.9412 12.2908L11.7007 12.0405C11.5685 11.9029 11.4155 11.7902 11.3607 11.7902C11.306 11.7902 11.0949 11.7131 10.8917 11.6188C10.5374 11.4544 10.529 11.4373 10.6858 11.2032C10.7889 11.0493 10.8094 10.9348 10.7412 10.8936C10.6817 10.8577 10.6641 10.7791 10.702 10.719C10.7466 10.6485 10.8045 10.6604 10.8653 10.7526C10.9264 10.8453 10.9878 10.8577 11.0402 10.788C11.0846 10.7289 11.2663 10.6121 11.4439 10.5283L11.7669 10.376L11.4262 10.3402C11.0573 10.3015 10.86 10.0313 11.1274 9.93098C11.2178 9.89708 11.3185 9.89551 11.3513 9.92751C11.384 9.95951 11.572 9.89712 11.7691 9.78887C11.9662 9.68062 12.3116 9.55827 12.5366 9.517C12.7616 9.47572 13.011 9.37816 13.0907 9.30019C13.2796 9.11553 13.3535 9.11959 14.3538 9.36977C15.2515 9.59429 15.5046 9.57336 15.8729 9.24415C16.0807 9.05844 16.1645 9.04929 16.727 9.15097C17.4649 9.28435 18.8549 9.30143 18.7757 9.17615C18.7453 9.12799 18.367 9.02966 17.9351 8.95764C16.8346 8.77415 16.7107 8.73473 16.8914 8.62551C17.2047 8.43621 15.802 7.98933 14.4312 7.84169C14.061 7.80182 13.7347 7.73206 13.706 7.68666C13.6773 7.64126 13.7554 7.47782 13.8796 7.32344C14.0882 7.06417 14.0922 7.02847 13.932 6.85538C13.8366 6.75232 13.7585 6.64209 13.7585 6.61042C13.7585 6.48032 15.5815 6.66753 16.1808 6.85917C17.0426 7.13475 18.7875 7.33587 18.9487 7.17821C19.034 7.09482 19.0348 7.02322 18.9514 6.92498C18.8388 6.79234 18.6662 6.7356 17.2305 6.35942C16.7827 6.2421 16.5576 6.13006 16.5576 6.02456C16.5576 5.89121 16.6847 5.87726 17.3564 5.93678C17.8682 5.98212 18.1799 5.96843 18.224 5.89866C18.2619 5.83877 18.2335 5.78977 18.1609 5.78977C18.0883 5.78977 18.054 5.76525 18.0846 5.73528C18.1568 5.6647 19.6815 5.97758 19.8331 6.09408C19.9523 6.18568 21.5244 6.42245 21.8597 6.39931C21.9633 6.39216 22.0481 6.32702 22.0481 6.25455C22.0481 6.18209 22.0731 6.05895 22.1038 5.9809C22.1567 5.84608 20.8419 5.57352 18.5764 5.24961C18.236 5.20095 17.782 5.08941 17.5674 5.00173C17.3528 4.91406 17.0257 4.84207 16.8405 4.84174C16.353 4.84079 15.6527 4.6324 15.7658 4.52177C15.8182 4.47053 16.4738 4.41512 17.2227 4.39861C17.9717 4.38212 18.5763 4.36057 18.5665 4.35075C18.5567 4.34093 18.3092 4.24093 18.0166 4.12854C17.5071 3.93283 17.4949 3.91884 17.7278 3.79699C17.9101 3.70156 18.105 3.6979 18.5076 3.78235C19.1628 3.91975 19.249 3.92158 19.249 3.798C19.249 3.74471 19.1043 3.67 18.9273 3.632C18.3388 3.5056 18.4662 3.36856 19.1723 3.36856C19.5832 3.36856 19.9988 3.30178 20.2006 3.20332C20.4049 3.10368 20.6339 3.06743 20.7776 3.11201C21.0847 3.20733 26.1393 3.24368 26.0802 3.15015C25.955 2.95201 27.3673 2.95303 28.5723 3.15205C31.0128 3.55489 33.0891 3.78387 34.4285 3.79788C35.1687 3.80562 36.2829 3.87705 36.9046 3.95662C37.5263 4.03618 38.6339 4.15011 39.3659 4.20981C40.0979 4.2695 40.7277 4.33657 40.7654 4.35884C40.8032 4.38111 41.1974 4.42957 41.6415 4.46653C42.0856 4.50349 42.6185 4.55377 42.8257 4.57827C43.2571 4.62925 45.2213 4.73634 46.6475 4.78664C47.6791 4.82302 49.2468 4.91985 50.3078 5.01272C50.663 5.04382 52.0437 5.08947 53.376 5.11416C54.7082 5.13885 56.2827 5.19788 56.8748 5.24534C57.4669 5.29279 59.1045 5.32691 60.5139 5.32115C62.6452 5.31245 63.0935 5.28457 63.1783 5.15552C63.2649 5.02388 63.295 5.02262 63.3771 5.14724C63.4415 5.24509 63.58 5.27335 63.792 5.2319C63.9674 5.1976 64.163 5.22138 64.228 5.2849C64.2928 5.34828 64.5058 5.41011 64.7012 5.42233C64.8967 5.43455 65.1535 5.47259 65.272 5.50687C65.9171 5.69368 66.5893 5.748 66.8601 5.63522C67.0775 5.54467 67.6201 5.65163 67.5451 5.77025C67.5175 5.81395 68.0363 5.86244 68.698 5.878C70.4799 5.9199 70.6647 5.93905 70.8664 6.10271C71.0303 6.23574 71.0467 6.22963 71.0142 6.04742C70.9895 5.90854 71.0298 5.85458 71.1392 5.87993C71.228 5.9005 71.4097 5.91827 71.5429 5.91941C71.6761 5.92056 71.7851 5.95787 71.7851 6.00234C71.7851 6.04681 71.8632 6.11248 71.9586 6.14828C72.0846 6.19555 72.1144 6.1683 72.0675 6.0488C72.023 5.93541 72.0444 5.91 72.1363 5.96708C72.2096 6.01265 72.7298 6.06481 73.2923 6.08299C74.4753 6.12122 74.2995 6.12072 79.8593 6.10156C82.1982 6.09349 84.4113 6.12111 84.7774 6.16292C85.1435 6.20473 85.5244 6.20838 85.624 6.17105C85.8072 6.10229 89.3241 5.96654 90.4046 5.98652C91.2496 6.00213 92.2079 5.51637 91.6749 5.34262C91.5954 5.31672 91.6504 5.24223 91.8094 5.16018C91.9573 5.08391 92.1052 4.98152 92.1381 4.93265C92.2569 4.75602 93.171 4.65747 93.4306 4.79331C93.5942 4.87891 94.0276 4.90966 94.7093 4.88401C95.2765 4.86266 97.1394 4.82019 98.8492 4.78965C100.559 4.7591 102.075 4.70524 102.219 4.66995C102.363 4.63466 102.974 4.59854 103.577 4.58968C104.181 4.58081 104.771 4.52031 104.889 4.45523C105.101 4.33879 106.1 4.14766 106.267 4.19154C106.473 4.24561 106.855 4.23202 107.204 4.15822C107.411 4.11437 107.678 4.08643 107.796 4.09613C107.914 4.10584 108.108 4.12213 108.227 4.13234C108.345 4.14254 108.902 4.09529 109.465 4.02729C110.027 3.95929 110.697 3.90464 110.953 3.90584C111.209 3.90699 111.475 3.86321 111.545 3.80843C111.615 3.75365 111.829 3.6759 112.022 3.63566C112.308 3.57578 112.371 3.59484 112.371 3.74066C112.371 3.89848 112.461 3.91031 113.152 3.8443C113.581 3.80332 114.708 3.75888 115.655 3.74554C116.602 3.73219 117.638 3.66563 117.957 3.59762C118.276 3.52961 118.561 3.47396 118.59 3.47396C118.618 3.47396 118.582 3.4029 118.508 3.31606C118.434 3.22921 118.21 3.15815 118.01 3.15815C117.81 3.15815 117.647 3.13834 117.647 3.11413C117.647 3.08991 117.617 2.99516 117.581 2.90358C117.492 2.6752 117.795 2.68644 118.034 2.92036C118.169 3.05289 118.234 3.06729 118.266 2.97234C118.291 2.90013 118.355 2.86782 118.409 2.90054C118.464 2.93324 118.508 2.92169 118.508 2.87485C118.508 2.82801 118.617 2.78388 118.75 2.77678C118.883 2.76969 119.622 2.71026 120.392 2.64473C121.162 2.5792 122.712 2.50661 123.837 2.48342C124.962 2.46023 126.003 2.41529 126.151 2.38354C126.653 2.27597 129.411 2.02655 130.888 1.95508C133.626 1.82265 135.702 1.4397 136.13 0.98806C136.264 0.846783 136.5 0.732716 136.67 0.727329C138.063 0.683064 139.997 0.541187 140.846 0.421036C141.202 0.370758 141.825 0.300575 142.231 0.265072C142.638 0.229568 143.214 0.155407 143.511 0.100266C143.808 0.0451241 144.069 0 144.091 0C144.112 0 144.13 0.121052 144.13 0.269215ZM144.13 1.22704C144.13 1.3422 144.178 1.35081 144.341 1.26519C144.467 1.19912 144.527 1.0906 144.49 0.995613C144.442 0.873104 144.394 0.864353 144.279 0.957474C144.197 1.02394 144.13 1.14524 144.13 1.22704ZM125.99 2.79277C125.569 2.94049 125.579 2.94265 126.474 2.89133C128.524 2.77382 129.166 2.71428 129.166 2.64169C129.166 2.50435 126.443 2.6339 125.99 2.79277ZM175.996 4.06403C175.996 4.08678 176.069 4.10541 176.158 4.10541C176.246 4.10541 176.319 4.05952 176.319 4.00344C176.319 3.94736 176.246 3.92874 176.158 3.96206C176.069 3.99539 175.996 4.04128 175.996 4.06403ZM168.191 4.42122C168.153 4.48067 168.242 4.52649 168.394 4.52649C168.542 4.52649 168.693 4.47912 168.729 4.42122C168.767 4.36176 168.679 4.31594 168.527 4.31594C168.379 4.31594 168.228 4.36332 168.191 4.42122ZM173.305 4.95985C173.305 5.06847 173.434 5.07866 173.673 4.98895C173.943 4.88758 173.87 4.76112 173.574 4.81654C173.426 4.84421 173.305 4.9087 173.305 4.95985ZM112.389 4.97698C112.022 5.07704 111.971 5.11548 112.152 5.15742C112.44 5.224 115.865 5.08331 117.7 4.92953C118.199 4.88774 114.347 4.78571 113.556 4.81975C113.171 4.8363 112.646 4.90705 112.389 4.97698ZM108.657 5.30097C108.539 5.32837 108.757 5.34692 109.142 5.3422C110.06 5.33093 110.424 5.23423 109.842 5.15609C109.605 5.12432 109.29 5.13271 109.142 5.17474C108.994 5.21677 108.776 5.27357 108.657 5.30097ZM177.36 5.27005C177.138 5.27637 177.14 5.28186 177.389 5.37911C177.682 5.49378 177.934 5.43666 177.934 5.25541C177.934 5.18938 177.857 5.16426 177.764 5.19947C177.67 5.23462 177.488 5.26637 177.36 5.27005ZM107.04 5.38854C107.011 5.4167 107.203 5.4477 107.466 5.45742C107.729 5.46715 107.978 5.42215 108.018 5.35742C108.071 5.2747 107.944 5.25423 107.593 5.28854C107.317 5.31538 107.069 5.36039 107.04 5.38854ZM22.8555 6.63189C22.8143 6.69708 22.9861 6.73242 23.3067 6.72471C23.7663 6.71365 23.7881 6.70324 23.5014 6.63189C23.0303 6.51468 22.9296 6.51468 22.8555 6.63189ZM188.787 8.1776C188.865 8.20801 188.958 8.20427 188.993 8.16929C189.029 8.13431 188.966 8.10942 188.852 8.11399C188.727 8.11905 188.701 8.14399 188.787 8.1776ZM187.515 8.31623C187.299 8.38399 187.288 8.40112 187.461 8.40361C187.58 8.40532 187.774 8.36599 187.892 8.31623C188.166 8.20096 187.883 8.20096 187.515 8.31623ZM186.071 8.27486C185.977 8.31001 185.9 8.42392 185.9 8.52802C185.9 8.68927 185.968 8.709 186.358 8.66136C186.853 8.6009 187.175 8.4215 186.79 8.4215C186.663 8.4215 186.529 8.37413 186.493 8.31623C186.416 8.19506 186.311 8.18475 186.071 8.27486ZM11.1748 10.1058C11.1748 10.1637 11.2596 10.2104 11.3632 10.2095C11.5242 10.2082 11.5281 10.1931 11.3901 10.1058C11.187 9.97744 11.1748 9.97744 11.1748 10.1058ZM183.404 14.3886C183.482 14.419 183.575 14.4153 183.611 14.3803C183.646 14.3453 183.583 14.3204 183.469 14.325C183.344 14.3301 183.318 14.355 183.404 14.3886ZM184.286 14.6957C184.286 14.8673 184.585 14.8866 184.978 14.7404C185.407 14.5812 185.305 14.4692 184.77 14.5107C184.445 14.536 184.286 14.5969 184.286 14.6957ZM182.286 14.6198C182.393 14.7899 182.778 14.8332 182.778 14.6753C182.778 14.5866 182.668 14.5272 182.503 14.5272C182.351 14.5272 182.254 14.5689 182.286 14.6198ZM183.101 14.7378C182.981 14.8137 183.043 14.8402 183.344 14.8414C183.566 14.8424 183.747 14.7957 183.747 14.7378C183.747 14.6037 183.314 14.6037 183.101 14.7378ZM3.63889 27.0545C3.63889 27.1124 3.68732 27.1598 3.74655 27.1598C3.80574 27.1598 3.85419 27.1124 3.85419 27.0545C3.85419 26.9966 3.80574 26.9492 3.74655 26.9492C3.68732 26.9492 3.63889 26.9966 3.63889 27.0545ZM2.85838 29.0191C2.93237 29.0483 3.05348 29.0483 3.12749 29.0191C3.20151 28.9899 3.14095 28.966 2.99295 28.966C2.84491 28.966 2.78435 28.9899 2.85838 29.0191ZM4.47321 30.2869C4.60643 30.312 4.82443 30.312 4.95766 30.2869C5.09088 30.2618 4.98187 30.2413 4.71542 30.2413C4.44897 30.2413 4.33998 30.2618 4.47321 30.2869ZM9.4523 31.1367C9.4523 31.1818 9.85197 31.2749 10.3405 31.3435C10.829 31.4122 11.3452 31.5012 11.4877 31.5413C11.6486 31.5867 11.7218 31.5748 11.6809 31.5102C11.6447 31.4529 11.189 31.3457 10.6683 31.2721C10.1475 31.1984 9.673 31.1231 9.61378 31.1048C9.55458 31.0864 9.49402 31.0677 9.47922 31.0631C9.46439 31.0585 9.4523 31.0917 9.4523 31.1367ZM166.469 32.1075C166.276 32.1883 166.284 32.1988 166.543 32.2054C166.702 32.2094 166.863 32.1654 166.899 32.1075C166.979 31.9818 166.768 31.9818 166.469 32.1075ZM10.2059 32.7243C10.2059 32.774 10.6921 32.8687 11.2863 32.9348C12.6248 33.0836 12.8651 33.0866 12.7283 32.9528C12.6708 32.8967 12.0919 32.8085 11.4418 32.757C10.7916 32.7055 10.2476 32.6567 10.2328 32.6486C10.218 32.6405 10.2059 32.6745 10.2059 32.7243ZM172.508 33.9848C172.478 34.0331 172.523 34.0726 172.61 34.0726C172.696 34.0726 172.766 34.0331 172.766 33.9848C172.766 33.9366 172.721 33.8971 172.665 33.8971C172.609 33.8971 172.539 33.9366 172.508 33.9848ZM158.105 34.1796C158.183 34.21 158.276 34.2062 158.311 34.1713C158.347 34.1363 158.284 34.1114 158.17 34.116C158.045 34.121 158.019 34.146 158.105 34.1796ZM174.812 34.3182C174.812 34.3761 174.897 34.4227 175 34.4219C175.161 34.4205 175.165 34.4054 175.027 34.3182C174.824 34.1898 174.812 34.1898 174.812 34.3182ZM174.381 34.4823C174.381 34.5078 174.43 34.5287 174.489 34.5287C174.548 34.5287 174.597 34.4786 174.597 34.4173C174.597 34.3559 174.548 34.335 174.489 34.3708C174.43 34.4066 174.381 34.4568 174.381 34.4823ZM168.245 35.2153C168.097 35.2557 167.637 35.3284 167.222 35.3767C166.808 35.425 166.299 35.5146 166.092 35.5758C165.885 35.637 165.715 35.6831 165.715 35.6783C165.715 35.638 164.978 35.8632 164.611 36.0154C164.056 36.2463 164.021 36.4236 164.531 36.4236C164.794 36.4236 164.908 36.4712 164.908 36.5815C164.908 36.7434 164.426 36.8074 163.626 36.7518C163.277 36.7275 162.283 36.9089 162.056 37.0383C161.886 37.1349 162.429 37.2439 163.138 37.2553C163.599 37.2627 163.992 37.1886 164.477 37.0026C164.855 36.8579 165.263 36.7387 165.385 36.7378C165.562 36.7365 165.575 36.7165 165.451 36.6395C165.365 36.5863 165.256 36.5661 165.209 36.5947C165.161 36.6232 165.123 36.6018 165.123 36.547C165.123 36.4528 165.358 36.3862 166.181 36.2482C166.378 36.2152 166.565 36.1215 166.597 36.04C166.645 35.9189 166.686 35.9164 166.824 36.0262C166.966 36.1386 166.983 36.1335 166.93 35.9946C166.884 35.8732 166.929 35.8334 167.098 35.8463C167.226 35.8559 167.491 35.8209 167.687 35.7683C167.935 35.7021 168.091 35.7112 168.198 35.7979C168.285 35.8683 168.353 35.8776 168.353 35.8192C168.353 35.703 169.173 35.3709 169.46 35.3709C169.561 35.3709 169.644 35.3061 169.644 35.227C169.644 35.1198 169.5 35.0905 169.079 35.1124C168.768 35.1285 168.393 35.1748 168.245 35.2153ZM163.816 39.0331C163.894 39.0584 164.009 39.029 164.071 38.9679C164.151 38.8897 164.109 38.876 163.93 38.9218C163.784 38.9591 163.736 39.0068 163.816 39.0331ZM33.7827 39.4502C33.7827 39.4936 33.9299 39.5392 34.1096 39.5515C34.2965 39.5643 34.4088 39.5305 34.3722 39.4725C34.2971 39.3538 33.7824 39.3342 33.7827 39.4502ZM163.508 40.1133L163.239 40.1214L163.49 40.2199C163.774 40.3311 164.262 40.2454 164.262 40.0844C164.262 40.0257 164.153 40.0067 164.019 40.0418C163.886 40.0767 163.656 40.1089 163.508 40.1133ZM34.6438 40.0906C34.6438 40.1388 34.7165 40.1783 34.8053 40.1783C34.8941 40.1783 34.9668 40.1388 34.9668 40.0906C34.9668 40.0423 34.8941 40.0028 34.8053 40.0028C34.7165 40.0028 34.6438 40.0423 34.6438 40.0906ZM34.193 40.0747C34.2707 40.1052 34.3636 40.1014 34.3993 40.0665C34.4351 40.0315 34.3715 40.0066 34.258 40.0112C34.1326 40.0162 34.1071 40.0411 34.193 40.0747ZM161.658 40.2853C161.735 40.3157 161.828 40.312 161.864 40.277C161.9 40.242 161.836 40.2171 161.723 40.2217C161.597 40.2267 161.572 40.2517 161.658 40.2853ZM173.735 40.4239C173.735 40.4818 173.784 40.5292 173.843 40.5292C173.902 40.5292 173.951 40.4818 173.951 40.4239C173.951 40.366 173.902 40.3186 173.843 40.3186C173.784 40.3186 173.735 40.366 173.735 40.4239ZM170.936 40.7C170.936 40.8179 171.138 40.7145 171.196 40.5669C171.253 40.4225 171.237 40.4159 171.1 40.5272C171.01 40.6004 170.936 40.6781 170.936 40.7ZM169.86 40.6871C169.86 40.7739 169.879 40.845 169.902 40.845C169.925 40.845 169.972 40.7739 170.006 40.6871C170.04 40.6002 170.021 40.5292 169.964 40.5292C169.907 40.5292 169.86 40.6002 169.86 40.6871ZM28.9178 44.2856C28.9955 44.316 29.0884 44.3122 29.1242 44.2773C29.16 44.2423 29.0964 44.2174 28.9829 44.222C28.8575 44.227 28.832 44.252 28.9178 44.2856ZM128.04 46.4171C128.006 46.471 128.022 46.5418 128.076 46.5744C128.13 46.607 128.202 46.5629 128.236 46.4764C128.303 46.3059 128.141 46.2569 128.04 46.4171ZM179.139 1.23677C179.201 1.30914 179.21 1.3698 179.158 1.37156C179.107 1.37328 179.155 1.42622 179.266 1.48912C179.55 1.65049 179.298 1.78881 178.741 1.77734C178.451 1.77135 178.381 1.74621 178.526 1.69999C178.731 1.63477 178.884 1.36678 178.714 1.3698C178.398 1.37544 178.17 1.51301 178.219 1.66822C178.267 1.81976 178.255 1.81844 178.119 1.65785C177.935 1.43963 177.116 1.39948 177.045 1.60521C177.009 1.70972 176.966 1.70901 176.833 1.60174C176.623 1.43265 176.499 1.02177 176.677 1.08598C176.747 1.111 176.788 1.19528 176.769 1.27327C176.744 1.37243 176.794 1.36205 176.933 1.23875C177.092 1.09795 177.323 1.06674 178.08 1.08379C178.681 1.09735 179.068 1.1532 179.139 1.23677ZM180.617 1.4688C180.761 1.55547 180.692 1.78944 180.523 1.78944C180.4 1.78944 180.292 1.49218 180.393 1.4313C180.438 1.40432 180.539 1.4212 180.617 1.4688ZM178.34 2.3158C178.459 2.50224 178.446 2.52817 178.231 2.54237C178.097 2.55118 177.915 2.56614 177.826 2.5756C177.539 2.60618 177.485 2.50999 177.674 2.30534C177.914 2.04681 178.17 2.05085 178.34 2.3158ZM113.125 3.09911C113.125 3.12465 113.077 3.17482 113.017 3.2106C112.958 3.24638 112.91 3.22549 112.91 3.16418C112.91 3.10286 112.958 3.05269 113.017 3.05269C113.077 3.05269 113.125 3.07358 113.125 3.09911ZM111.862 3.17102C111.789 3.24297 111.702 3.27531 111.669 3.2429C111.636 3.21049 111.695 3.15163 111.802 3.11209C111.955 3.05497 111.967 3.06706 111.862 3.17102ZM169.644 3.46089C169.644 3.5117 169.57 3.61391 169.478 3.68802C169.349 3.79279 169.284 3.79467 169.183 3.69653C169.083 3.59837 169.09 3.54818 169.215 3.471C169.418 3.3455 169.644 3.34015 169.644 3.46089ZM48.1008 4.42122C48.1008 4.47912 48.031 4.52649 47.9457 4.52649C47.8604 4.52649 47.7606 4.47912 47.724 4.42122C47.6874 4.36332 47.7572 4.31594 47.8791 4.31594C48.001 4.31594 48.1008 4.36332 48.1008 4.42122ZM49.9309 4.53303C49.9309 4.65287 49.6417 4.66507 49.5679 4.54834C49.5389 4.50246 49.6088 4.45803 49.7231 4.44961C49.8374 4.44118 49.9309 4.47873 49.9309 4.53303ZM156.694 4.70289C156.791 4.94976 156.643 4.98598 156.271 4.80664C156.077 4.71309 155.967 4.62943 156.026 4.62072C156.48 4.554 156.643 4.57415 156.694 4.70289ZM63.6033 4.94757C63.6033 5.00547 63.5819 5.05284 63.5558 5.05284C63.5297 5.05284 63.4784 5.00547 63.4418 4.94757C63.4052 4.88968 63.4265 4.8423 63.4892 4.8423C63.5519 4.8423 63.6033 4.88968 63.6033 4.94757ZM65.1553 5.03872C65.2017 5.11209 65.2106 5.20055 65.175 5.2353C65.0787 5.32951 64.9736 5.19094 65.0257 5.03829C65.0621 4.93131 65.0875 4.93125 65.1553 5.03872ZM64.7606 5.01729C64.9809 5.10426 64.9131 5.24826 64.6798 5.18861C64.5614 5.15833 64.4645 5.09171 64.4645 5.04057C64.4645 4.9402 64.5485 4.93361 64.7606 5.01729ZM13.1485 5.54411C13.2724 5.66524 13.2269 5.78974 13.0588 5.78974C12.97 5.78974 12.8973 5.71868 12.8973 5.63183C12.8973 5.46745 13.0246 5.42298 13.1485 5.54411ZM146.754 6.18896C146.783 6.23485 146.712 6.27936 146.596 6.28788C146.481 6.29638 146.414 6.25885 146.449 6.20445C146.525 6.08376 146.682 6.07578 146.754 6.18896ZM145.783 6.3698C145.749 6.45606 145.642 6.53028 145.545 6.53474C145.448 6.5392 145.15 6.56419 144.884 6.59027C144.534 6.62447 144.444 6.60799 144.561 6.53114C144.694 6.44324 144.695 6.4243 144.57 6.42297C144.486 6.42202 144.447 6.39185 144.484 6.35577C144.521 6.31968 144.842 6.27279 145.198 6.25156C145.737 6.21939 145.835 6.23914 145.783 6.3698ZM189.718 6.62463C189.797 6.7506 189.595 6.87541 189.451 6.78875C189.331 6.71599 189.41 6.52664 189.561 6.52664C189.613 6.52664 189.684 6.57074 189.718 6.62463ZM188.7 9.36274C188.7 9.41722 188.652 9.49075 188.593 9.52612C188.532 9.563 188.514 9.52074 188.551 9.42706C188.622 9.24469 188.7 9.21132 188.7 9.36274ZM187.91 9.41696C187.91 9.50126 187.869 9.54536 187.819 9.51496C187.768 9.48456 187.755 9.41558 187.789 9.36168C187.876 9.22395 187.91 9.23946 187.91 9.41696ZM0.301529 23.1595C0.39035 23.2156 0.414581 23.2615 0.355347 23.2615C0.296158 23.2615 0.175034 23.2156 0.0862274 23.1595C-0.00259399 23.1033 -0.0267944 23.0574 0.0324097 23.0574C0.0916138 23.0574 0.212708 23.1033 0.301529 23.1595ZM177.18 30.9719C177.18 31.0175 177.083 31.0548 176.965 31.0548C176.847 31.0548 176.75 31.0104 176.75 30.9561C176.75 30.9018 176.847 30.8645 176.965 30.8732C177.083 30.8819 177.18 30.9264 177.18 30.9719ZM172.672 32.5179L172.924 32.7178L172.28 32.8015C171.926 32.8475 171.382 32.8878 171.071 32.8911C170.76 32.8944 170.506 32.9293 170.506 32.9687C170.506 33.0506 169.864 32.8874 169.764 32.7799C169.728 32.7408 169.848 32.7366 170.03 32.7705C170.235 32.8085 170.483 32.7698 170.676 32.67C170.849 32.5808 171.244 32.5032 171.555 32.4976C171.866 32.492 172.12 32.4493 172.12 32.4027C172.12 32.2518 172.413 32.313 172.672 32.5179ZM174.029 32.4869C173.993 32.5219 173.901 32.5257 173.823 32.4952C173.737 32.4616 173.762 32.4367 173.888 32.4316C174.001 32.4271 174.065 32.4519 174.029 32.4869ZM175.988 33.941C175.992 34.052 175.967 34.1141 175.931 34.0792C175.895 34.0442 175.891 33.9534 175.923 33.8774C175.957 33.7934 175.982 33.8184 175.988 33.941ZM173.047 34.8258C173.017 34.8734 173.092 34.9953 173.213 35.0967C173.43 35.2782 173.423 35.2861 172.767 35.5892C171.978 35.9543 171.905 35.9625 171.905 35.6867C171.905 35.557 171.977 35.4756 172.094 35.4746C172.246 35.4732 172.253 35.4551 172.13 35.3787C172.046 35.3268 171.888 35.3012 171.78 35.3216C171.671 35.3421 171.582 35.3106 171.582 35.2515C171.582 35.1925 171.74 35.1527 171.932 35.163C172.125 35.1733 172.379 35.1762 172.497 35.1694C172.677 35.1592 172.686 35.1401 172.551 35.0551C172.413 34.9679 172.417 34.9528 172.578 34.9514C172.682 34.9505 172.766 34.9024 172.766 34.8445C172.766 34.7866 172.842 34.7393 172.934 34.7393C173.027 34.7393 173.077 34.7782 173.047 34.8258ZM171.671 35.6753C171.779 35.7407 171.775 35.7846 171.651 35.8854C171.477 36.0267 171.338 35.9032 171.458 35.7136C171.5 35.646 171.594 35.6291 171.671 35.6753ZM175.404 40.1081C175.441 40.166 175.398 40.2134 175.309 40.2134C175.22 40.2134 175.118 40.166 175.081 40.1081C175.044 40.0502 175.087 40.0028 175.176 40.0028C175.265 40.0028 175.367 40.0502 175.404 40.1081ZM173.199 40.5794C173.044 40.7621 172.982 40.7811 172.982 40.6457C172.982 40.594 173.061 40.5219 173.158 40.4854C173.306 40.43 173.313 40.4454 173.199 40.5794ZM21.0488 42.2783C20.9226 42.4017 20.2333 42.4984 20.0943 42.4122C20.0142 42.3626 19.9972 42.3166 20.0564 42.31C20.6358 42.245 21.0979 42.2303 21.0488 42.2783ZM21.7024 42.4081C21.7919 42.4637 21.725 42.4943 21.514 42.4943C21.334 42.4943 21.1868 42.4548 21.1868 42.4065C21.1868 42.2945 21.5209 42.2954 21.7024 42.4081ZM24.4703 42.5425C24.9312 42.6434 26.05 42.7158 28.1404 42.7799C28.8563 42.8019 29.5456 42.874 29.6722 42.9403C29.8099 43.0124 30.2922 43.049 30.8735 43.0316C31.4077 43.0156 31.8447 43.0133 31.8447 43.0265C31.8447 43.0631 31.2183 43.3716 31.144 43.3716C31.1079 43.3716 31.1084 43.3242 31.1449 43.2663C31.1838 43.2049 31.0743 43.1611 30.8822 43.1611C30.701 43.1611 30.5528 43.2084 30.5528 43.2663C30.5528 43.3242 30.5015 43.3716 30.4388 43.3716C30.3761 43.3716 30.3612 43.3124 30.4057 43.24C30.4654 43.1427 30.446 43.1362 30.3313 43.215C30.2459 43.2737 30.0791 43.3162 29.9607 43.3096C29.8423 43.3029 29.4882 43.2905 29.1739 43.2819C28.8595 43.2733 28.6248 43.2308 28.6523 43.1874C28.6798 43.144 28.4041 43.1154 28.0396 43.1238C27.6752 43.1324 27.2922 43.0951 27.1886 43.0412C27.0628 42.9757 27.0002 42.9814 27.0002 43.0583C27.0002 43.1216 26.9416 43.1381 26.8701 43.0948C26.7985 43.0516 26.3261 43.0033 25.8204 42.9875C25.3147 42.9717 24.9009 42.9531 24.9009 42.9463C24.9009 42.9394 24.6587 42.9184 24.3626 42.8997C24.0666 42.8809 23.8122 42.8551 23.7974 42.8422C23.7722 42.8203 23.6613 42.7885 23.4745 42.7494C23.3888 42.7315 23.8941 42.4257 23.9858 42.44C24.0154 42.4446 24.2334 42.4907 24.4703 42.5425ZM28.8304 43.0689C28.8304 43.1195 28.9244 43.161 29.0393 43.161C29.1543 43.161 29.2745 43.1195 29.3065 43.0689C29.3385 43.0182 29.2445 42.9768 29.0976 42.9768C28.9506 42.9768 28.8304 43.0182 28.8304 43.0689ZM23.0719 43.3732C23.1091 43.4321 23.1846 43.453 23.2397 43.4197C23.2948 43.3864 23.3399 43.4065 23.3399 43.4644C23.3399 43.6682 23.1662 43.6714 23.0376 43.47C22.966 43.3579 22.9292 43.2662 22.9559 43.2662C22.9825 43.2662 23.0347 43.3144 23.0719 43.3732ZM25.3764 43.7838C25.4899 43.8948 25.6052 43.9636 25.6327 43.9368C25.6601 43.9099 25.9185 43.8721 26.2068 43.8527C26.7063 43.8191 27.3256 44.0359 27.1685 44.1895C27.0428 44.3124 26.2994 44.2836 26.137 44.1496C25.9707 44.0123 25.6678 44.0078 25.5321 44.1405C25.4178 44.2522 24.8686 44.2277 24.7927 44.1075C24.6893 43.9439 24.8429 43.5821 25.0158 43.5821C25.1006 43.5821 25.2629 43.6729 25.3764 43.7838ZM24.2653 43.7036C24.3111 43.7762 24.295 43.7967 24.2252 43.7545C24.161 43.7157 24.078 43.7321 24.0408 43.7909C23.9405 43.9496 23.8064 43.9205 23.8064 43.74C23.8064 43.5545 24.1537 43.527 24.2653 43.7036ZM150.13 44.4878C150.094 44.5228 150.001 44.5266 149.923 44.4961C149.837 44.4625 149.863 44.4376 149.988 44.4325C150.102 44.428 150.165 44.4528 150.13 44.4878ZM128.412 47.4771C128.412 47.535 128.391 47.5824 128.365 47.5824C128.339 47.5824 128.287 47.535 128.251 47.4771C128.214 47.4192 128.235 47.3718 128.298 47.3718C128.361 47.3718 128.412 47.4192 128.412 47.4771ZM125.902 47.4664C126.076 47.5913 126.034 47.7707 125.843 47.7218C125.721 47.6906 125.642 47.7335 125.631 47.8378C125.621 47.9289 125.605 48.0745 125.595 48.1614C125.585 48.2482 125.488 48.3252 125.38 48.3324C125.271 48.3397 125.146 48.3554 125.102 48.3673C125.057 48.3793 124.876 48.4273 124.698 48.4739C124.303 48.5778 124.088 48.7328 124.167 48.8575C124.2 48.9089 124.131 48.9509 124.014 48.9509C123.897 48.9509 123.776 48.8917 123.746 48.8193C123.708 48.7279 123.665 48.7222 123.603 48.8006C123.445 49.0014 123.115 49.064 122.941 48.9264C122.802 48.8159 122.789 48.8186 122.865 48.9425C122.935 49.056 122.912 49.075 122.769 49.0214C122.666 48.9826 122.516 48.9509 122.436 48.9509C122.356 48.9509 122.261 48.861 122.225 48.7512C122.184 48.6228 122.091 48.5691 121.967 48.6009C121.692 48.6712 121.721 48.9315 121.998 48.8816C122.217 48.8423 122.217 48.8437 122.007 48.9413C121.888 48.9963 121.627 49.0447 121.427 49.0488C121.227 49.0529 120.766 49.1026 120.404 49.1594C119.466 49.3066 117.107 49.5645 116.032 49.6374C115.528 49.6715 114.899 49.7183 114.632 49.7412C114.071 49.7896 112.963 49.8666 111.51 49.9581C110.948 49.9935 110.173 50.0486 109.788 50.0805C108.863 50.1571 107.407 50.1628 107.204 50.0906C107.115 50.0589 106.837 49.9967 106.585 49.9522C106.333 49.9078 106.127 49.8365 106.127 49.7939C106.127 49.7513 106.247 49.5993 106.394 49.4562C106.61 49.2443 106.76 49.1979 107.201 49.2063C107.524 49.2126 107.728 49.1735 107.707 49.1101C107.687 49.0515 107.297 48.9996 106.842 48.9948C106.126 48.9874 105.649 48.8512 105.812 48.7007C105.884 48.6333 107.312 48.5668 107.311 48.6308C107.311 48.6621 107.638 48.6729 108.038 48.6548C108.438 48.6366 109.043 48.6648 109.383 48.7175C109.722 48.7702 110.023 48.7908 110.051 48.7633C110.079 48.7359 110.31 48.7034 110.564 48.6912C110.818 48.679 111.16 48.6324 111.323 48.5876C111.5 48.5392 111.676 48.5512 111.757 48.6172C111.833 48.6782 112.362 48.7391 112.935 48.7525C113.644 48.7691 113.954 48.813 113.907 48.8902C113.868 48.9525 113.92 48.9383 114.02 48.8585C114.146 48.7588 114.339 48.735 114.641 48.7821C114.928 48.827 115.055 48.8135 115.011 48.7428C114.934 48.6222 114.949 48.6199 115.924 48.5942C116.309 48.5841 116.733 48.5386 116.866 48.4931C116.999 48.4476 117.108 48.449 117.108 48.4963C117.108 48.5437 117.229 48.5824 117.377 48.5824C117.525 48.5824 117.647 48.5469 117.647 48.5034C117.647 48.46 117.722 48.4245 117.814 48.4245C117.907 48.4245 117.957 48.4645 117.926 48.5134C117.851 48.6316 118.957 48.458 119.038 48.3389C119.184 48.1209 121.199 47.9 121.199 48.1019C121.199 48.1635 121.251 48.2139 121.313 48.2139C121.376 48.2139 121.399 48.1698 121.365 48.1159C121.268 47.9619 121.516 47.867 121.676 47.997C121.783 48.0842 121.834 48.0789 121.874 47.9761C121.909 47.8873 122.086 47.8468 122.371 47.8624C122.615 47.8757 122.814 47.8423 122.814 47.7883C122.814 47.6142 123.367 47.7285 123.475 47.9248C123.532 48.0292 123.625 48.0863 123.682 48.0517C123.74 48.0171 123.762 47.9497 123.731 47.9019C123.701 47.8541 123.747 47.7883 123.834 47.7558C123.921 47.7234 124.02 47.7428 124.056 47.7991C124.095 47.8615 124.233 47.8401 124.409 47.7442C124.741 47.5638 125.771 47.3721 125.902 47.4664ZM127.443 47.9446C127.443 48.1295 127.379 48.1567 127.286 48.0107C127.252 47.9568 127.274 47.883 127.334 47.8466C127.394 47.8102 127.443 47.8542 127.443 47.9446ZM127.038 48.1264C126.975 48.1876 126.86 48.217 126.783 48.1916C126.702 48.1654 126.751 48.1176 126.896 48.0804C127.075 48.0346 127.117 48.0483 127.038 48.1264ZM89.9521 48.3936C90.0853 48.4186 90.1943 48.4753 90.1943 48.5195C90.1943 48.6484 89.7264 48.5783 89.6801 48.4426C89.657 48.3747 89.6542 48.3257 89.674 48.3336C89.6937 48.3415 89.8188 48.3685 89.9521 48.3936ZM92.1859 48.6351C91.89 48.7594 91.72 48.7594 91.9168 48.6351C92.0056 48.5789 92.1509 48.5356 92.2397 48.5388C92.3462 48.5426 92.3279 48.5754 92.1859 48.6351ZM91.5338 48.6253C91.567 48.6778 91.4971 48.6959 91.3786 48.6656C91.1273 48.6013 91.0955 48.5298 91.3183 48.5298C91.4036 48.5298 91.5006 48.5728 91.5338 48.6253ZM105.393 48.8635C105.562 49.0301 105.486 49.0416 104.155 49.0494C103.375 49.0541 102.628 49.0782 102.496 49.1032C102.364 49.1281 102.231 49.1087 102.2 49.0602C102.17 49.0116 101.996 48.9819 101.815 48.9942C101.325 49.0273 101.323 48.874 101.813 48.8284C102.044 48.8068 102.211 48.8256 102.183 48.87C102.094 49.0098 102.26 48.958 102.429 48.793C102.612 48.6139 103.067 48.5817 103.167 48.7406C103.211 48.8107 103.305 48.8091 103.445 48.7358C103.683 48.6111 103.907 48.6958 103.798 48.8692C103.75 48.945 103.777 48.9522 103.877 48.8906C103.96 48.8396 104.295 48.7727 104.62 48.7419C105.086 48.6979 105.251 48.7237 105.393 48.8635ZM96.7613 48.7404C96.7613 48.7983 96.7399 48.8456 96.7138 48.8456C96.6877 48.8456 96.6364 48.7983 96.5998 48.7404C96.5632 48.6825 96.5846 48.6351 96.6473 48.6351C96.71 48.6351 96.7613 48.6825 96.7613 48.7404ZM101.068 48.9509C101.165 49.0122 101.178 49.0536 101.101 49.0546C101.03 49.0555 100.943 49.0088 100.906 48.9509C100.823 48.8202 100.861 48.8202 101.068 48.9509ZM59.0188 48.9653C58.9631 49.0534 59.3733 49.1571 59.4563 49.0758C59.5721 48.9627 60.0506 48.9413 60.0506 49.0493C60.0506 49.1161 60.3569 49.1322 60.8849 49.0931C61.5323 49.0452 61.8037 49.0699 62.0961 49.2032C62.3033 49.2978 62.3912 49.3534 62.2914 49.3268C62.1916 49.3003 62.0947 49.3198 62.0761 49.37C62.0575 49.4203 61.9696 49.4769 61.8808 49.4957C61.7919 49.5145 61.6837 49.5773 61.6402 49.6352C61.5967 49.6931 61.5603 49.6367 61.5594 49.5098C61.5579 49.2918 61.5416 49.2875 61.2617 49.4304C60.9962 49.5661 60.9503 49.5628 60.8166 49.3979C60.6749 49.2231 60.6707 49.2231 60.7325 49.3979C60.7826 49.5401 60.738 49.5821 60.537 49.5821C60.3938 49.5821 60.2272 49.4992 60.1669 49.3979C60.106 49.2957 60.0557 49.2722 60.0539 49.3453C60.0504 49.4831 59.7276 49.5352 59.7276 49.3979C59.7276 49.3545 59.3614 49.3217 58.9138 49.325C58.4662 49.3284 58.0757 49.2928 58.0462 49.2461C58.0166 49.1993 57.8887 49.161 57.7619 49.161C57.5775 49.161 57.5584 49.1347 57.666 49.0294C57.8008 48.8977 59.1005 48.836 59.0188 48.9653ZM57.2515 48.9684C57.2515 49.0167 57.2152 49.0594 57.1708 49.0633C57.1264 49.0672 56.9351 49.0902 56.7456 49.1144C56.3197 49.1689 56.168 48.9883 56.5778 48.9145C56.9828 48.8416 57.2515 48.8631 57.2515 48.9684ZM65.0027 49.3194C65.0027 49.3772 65.1843 49.4246 65.4064 49.4246C65.6285 49.4246 65.8458 49.3772 65.8893 49.3194C65.942 49.2492 65.969 49.2492 65.9703 49.3194C65.9727 49.4512 66.6176 49.4824 66.6176 49.3507C66.6176 49.2976 66.6617 49.2809 66.7155 49.3134C66.818 49.3754 67.765 49.4749 68.7707 49.5293C69.0964 49.547 69.3628 49.572 69.3628 49.585C69.3628 49.6556 70.7793 49.6567 70.87 49.5862C71.0317 49.4604 72.1081 49.3726 72.1081 49.4852C72.1081 49.5387 72.1807 49.5825 72.2696 49.5825C72.3584 49.5825 72.431 49.5368 72.431 49.4809C72.431 49.4175 73.1893 49.3981 74.4496 49.4292C75.5598 49.4565 76.585 49.4785 76.7278 49.4779C76.8707 49.4769 77.1492 49.5204 77.3468 49.5738C77.563 49.6321 77.7062 49.6325 77.7062 49.5748C77.7062 49.4791 78.0827 49.4946 78.1848 49.5945C78.2143 49.6233 78.7042 49.63 79.2735 49.6094C79.9597 49.5846 80.3599 49.6136 80.4608 49.6954C80.5792 49.7916 80.6133 49.7869 80.6145 49.6744C80.6157 49.5831 80.6453 49.5704 80.6953 49.6399C80.7428 49.7059 81.3552 49.7551 82.2277 49.763C83.0271 49.7701 85.4493 49.8032 87.6105 49.8363C89.7717 49.8694 92.5452 49.9028 93.7738 49.9105C95.0025 49.9181 96.0078 49.9542 96.0079 49.9904C96.008 50.0266 96.2745 50.0563 96.6001 50.0563C96.9256 50.0563 97.192 50.0208 97.192 49.9773C97.1919 49.9339 97.2432 49.8984 97.3059 49.8984C97.3686 49.8984 97.39 49.9458 97.3534 50.0037C97.3168 50.0616 97.3624 50.1089 97.4547 50.1089C97.547 50.1089 97.6226 50.1562 97.6226 50.2141C97.6226 50.272 97.6739 50.3194 97.7366 50.3194C97.7993 50.3194 97.8206 50.272 97.784 50.2141C97.7447 50.152 97.8633 50.1095 98.0737 50.1105C98.3433 50.1118 98.3907 50.1369 98.2685 50.2141C98.1492 50.2895 98.1442 50.3166 98.2493 50.3178C98.3588 50.3191 98.3544 50.3557 98.23 50.4773C98.1412 50.5642 97.9682 50.6352 97.8455 50.6352C97.7229 50.6352 97.6226 50.6858 97.6226 50.7476C97.6226 50.8143 97.5295 50.8311 97.3937 50.7889C97.2398 50.7412 97.189 50.7561 97.2386 50.8345C97.2791 50.8986 97.2836 50.951 97.2486 50.951C97.2136 50.951 97.1481 50.8536 97.1031 50.7345L97.0212 50.518L96.7373 50.7364C96.5427 50.8861 96.4299 50.9175 96.3786 50.8364C96.3255 50.7525 96.2775 50.7596 96.2135 50.8608C96.1401 50.9769 95.4015 51.0029 92.2706 50.9997C90.1516 50.9975 87.5459 50.9654 86.4801 50.9282C85.4144 50.891 83.6461 50.8331 82.5507 50.7995C78.5953 50.6783 77.5764 50.6343 77.4878 50.5807C77.2897 50.461 76.4222 50.3549 76.2909 50.4342C76.2099 50.4831 76.1156 50.4657 76.0673 50.3928C76.0049 50.2988 75.9568 50.3069 75.8777 50.4247C75.8194 50.5115 75.7709 50.5352 75.7699 50.4773C75.7687 50.4109 75.1029 50.3767 73.965 50.3848C72.1666 50.3975 69.0938 50.2275 69.0936 50.1154C69.0935 50.0828 68.7181 50.0616 68.2593 50.0681C67.473 50.0792 65.6617 49.9352 65.3405 49.8359C65.2221 49.7993 65.2198 49.7599 65.3288 49.6315C65.4387 49.502 65.436 49.481 65.314 49.5187C65.2317 49.5441 65.0291 49.594 64.8638 49.6294C64.6787 49.6692 64.5872 49.7433 64.6256 49.8225C64.6598 49.8931 64.6314 49.8768 64.5623 49.7862C64.4609 49.6529 64.3225 49.6366 63.8391 49.7007C63.4991 49.7459 63.1599 49.7375 63.0526 49.6813C62.9487 49.627 62.7274 49.5761 62.5607 49.5682C62.2814 49.555 62.278 49.5501 62.5172 49.506C62.7182 49.469 62.7425 49.4368 62.6249 49.364C62.4584 49.261 62.5983 49.2481 64.1146 49.2266C64.6435 49.2192 65.0027 49.2567 65.0027 49.3194ZM96.2915 50.2662C96.3255 50.3527 96.3966 50.3973 96.4496 50.3652C96.6016 50.2734 96.562 50.1089 96.3879 50.1089C96.2918 50.1089 96.254 50.1706 96.2915 50.2662ZM102.57 49.9063C102.46 50.1088 102.466 50.1318 102.619 50.0746C102.771 50.0175 102.777 50.0406 102.668 50.2407L102.541 50.473L102.434 50.2383C102.311 49.969 102.088 49.9299 101.998 50.1615C101.963 50.2484 101.974 50.3194 102.022 50.3194C102.069 50.3194 102.108 50.3911 102.108 50.4786C102.108 50.6081 102.011 50.6252 101.588 50.5703C101.232 50.5242 101.068 50.5405 101.068 50.6217C101.068 50.6877 100.897 50.7405 100.684 50.7405C100.433 50.7405 100.326 50.7006 100.374 50.6247C100.426 50.5424 100.382 50.5431 100.222 50.6272C100.034 50.7254 100.006 50.7182 100.059 50.585C100.093 50.4968 100.165 50.4247 100.218 50.4247C100.271 50.4247 100.314 50.3773 100.314 50.3194C100.314 50.1 100.119 50.2268 99.991 50.53C99.8412 50.8835 99.8374 50.8855 99.5675 50.7442C99.4313 50.673 99.3893 50.5617 99.4265 50.3714C99.4556 50.2222 99.4371 50.1139 99.3854 50.1308C99.3336 50.1477 99.267 50.1152 99.2374 50.0586C99.2056 49.9978 99.4614 49.9485 99.8638 49.9379C100.486 49.9216 100.554 49.9417 100.662 50.1724C100.777 50.4211 101.175 50.5301 101.175 50.3132C101.175 50.2519 101.127 50.2307 101.069 50.266C101.009 50.3023 100.989 50.262 101.024 50.1736C101.06 50.082 101.156 50.0434 101.256 50.0808C101.366 50.1223 101.399 50.1026 101.35 50.0246C101.263 49.8875 101.621 49.7864 102.036 49.8304C102.184 49.8461 102.394 49.8169 102.502 49.7654C102.678 49.6816 102.685 49.6962 102.57 49.9063ZM99.6253 50.3019C99.5948 50.3501 99.6382 50.3896 99.7218 50.3896C99.8055 50.3896 99.8489 50.3501 99.8184 50.3019C99.7879 50.2536 99.7445 50.2141 99.7218 50.2141C99.6992 50.2141 99.6558 50.2536 99.6253 50.3019ZM104.021 49.8864C104.053 49.9377 103.983 50.0044 103.865 50.0345C103.722 50.0711 103.672 50.1454 103.716 50.257C103.752 50.3492 103.736 50.4247 103.681 50.4247C103.533 50.4247 103.557 50.0808 103.715 49.9259C103.876 49.7688 103.941 49.7604 104.021 49.8864ZM103.36 50.1791C103.33 50.2563 103.291 50.3194 103.274 50.3194C103.258 50.3194 103.219 50.2563 103.189 50.1791C103.158 50.1019 103.197 50.0387 103.274 50.0387C103.352 50.0387 103.391 50.1019 103.36 50.1791ZM102.945 50.474C102.83 50.559 102.63 50.63 102.5 50.6319C102.244 50.6356 102.08 50.4759 102.241 50.3787C102.296 50.3454 102.36 50.3725 102.382 50.4391C102.413 50.5301 102.481 50.5303 102.654 50.4401C102.984 50.2669 103.193 50.291 102.945 50.474ZM104.376 50.4883C104.34 50.5233 104.247 50.527 104.169 50.4966C104.083 50.463 104.109 50.438 104.234 50.433C104.348 50.4284 104.411 50.4533 104.376 50.4883ZM98.6991 50.53C98.8371 50.6172 98.8332 50.6323 98.6722 50.6336C98.5686 50.6346 98.4838 50.5879 98.4838 50.53C98.4838 50.4016 98.4959 50.4016 98.6991 50.53ZM99.2773 50.6903C99.3286 50.8211 99.301 50.8301 99.1273 50.7392C98.8778 50.6086 98.8541 50.53 99.0644 50.53C99.1469 50.53 99.2427 50.6021 99.2773 50.6903Z" fill="#007BFF"/>
</svg>
