<svg width="467" height="337" viewBox="0 0 467 337" fill="none" xmlns="http://www.w3.org/2000/svg">
<path d="M20.2339 169.915C25.2914 159.722 28.1518 150.844 26.6229 150.086C25.0939 149.327 19.7545 156.975 14.697 167.168C9.63948 177.361 6.77903 186.239 8.30799 186.998C9.83696 187.757 15.1764 180.109 20.2339 169.915Z" fill="#E0E0E0"/>
<path d="M276.79 297.332C281.848 287.139 285.105 278.458 284.066 277.943C283.028 277.427 278.086 285.272 273.028 295.466C267.971 305.659 264.713 314.34 265.752 314.855C266.79 315.371 271.733 307.525 276.79 297.332Z" fill="#E0E0E0"/>
<path d="M138.924 245.803L129.392 237.932L103.155 269.706L112.687 277.577L138.924 245.803Z" fill="#F55F44"/>
<path opacity="0.05" d="M117.004 280.112L130.543 283.295L139.975 243.183L126.435 239.999L117.004 280.112Z" fill="black"/>
<path d="M118.51 280.466L130.543 283.295L139.975 243.183L127.941 240.353L118.51 280.466Z" fill="#F55F44"/>
<path d="M27.0812 149.163L7.85059 187.921L265.316 315.667L284.546 276.909L27.0812 149.163Z" fill="url(#paint0_linear)"/>
<path d="M265.773 314.744C260.734 312.327 4.61682 185.167 8.30807 186.998C22.5233 165.301 26.623 150.086 26.623 150.086L284.088 277.832C284.088 277.832 275.046 293.7 265.773 314.744Z" fill="#F5F5F5"/>
<path opacity="0.05" d="M160.431 216.477L139.206 205.946L120.891 242.858L142.116 253.39L160.431 216.477Z" fill="black"/>
<path d="M159.508 216.019L140.129 206.404L121.814 243.316L141.193 252.932L159.508 216.019Z" fill="#F55F44"/>
<path opacity="0.05" d="M155.817 214.188L142.897 207.777L124.583 244.69L137.502 251.1L155.817 214.188Z" fill="black"/>
<path d="M154.895 213.73L143.821 208.235L125.506 245.148L136.58 250.642L154.895 213.73Z" fill="#F55F44"/>
<path d="M153.403 332.783C154.351 332.783 155.12 332.014 155.12 331.066C155.12 330.117 154.351 329.348 153.403 329.348C152.454 329.348 151.685 330.117 151.685 331.066C151.685 332.014 152.454 332.783 153.403 332.783Z" fill="#DBDBDB"/>
<g opacity="0.5">
<path opacity="0.5" d="M19.0156 282.97H17.2544V292.95H19.0156V282.97Z" fill="#47E6B1"/>
<path opacity="0.5" d="M23.125 288.84V287.079H13.1447V288.84H23.125Z" fill="#47E6B1"/>
</g>
<g opacity="0.5">
<path opacity="0.5" d="M462.843 158.51H461.082V168.49H462.843V158.51Z" fill="#47E6B1"/>
<path opacity="0.5" d="M466.953 164.381V162.619H456.973V164.381H466.953Z" fill="#47E6B1"/>
</g>
<g opacity="0.5">
<path opacity="0.5" d="M29.5825 34.6374H27.8213V44.6176H29.5825V34.6374Z" fill="#47E6B1"/>
<path opacity="0.5" d="M33.6924 40.5081V38.7469H23.7121V40.5081H33.6924Z" fill="#47E6B1"/>
</g>
<g opacity="0.5">
<path opacity="0.5" d="M410.006 19.3734H408.245V29.3537H410.006V19.3734Z" fill="#47E6B1"/>
<path opacity="0.5" d="M414.116 25.2442V23.483H404.136V25.2442H414.116Z" fill="#47E6B1"/>
</g>
<path opacity="0.5" d="M7.21219 148.798C6.72683 148.586 6.33615 148.204 6.1145 147.723C5.89285 147.242 5.85572 146.697 6.01017 146.19C6.03516 146.113 6.0509 146.032 6.05707 145.951C6.07119 145.719 6.01022 145.489 5.88318 145.294C5.75613 145.1 5.56978 144.951 5.35172 144.871C5.13366 144.79 4.89549 144.782 4.67249 144.848C4.44949 144.913 4.25352 145.049 4.1136 145.234C4.06548 145.3 4.0253 145.371 3.99389 145.447C3.78251 145.932 3.40004 146.323 2.91928 146.544C2.43853 146.766 1.89306 146.803 1.3867 146.649C1.30907 146.624 1.22876 146.608 1.14744 146.602C0.915447 146.588 0.685076 146.649 0.490448 146.776C0.29582 146.903 0.147289 147.089 0.0668493 147.307C-0.01359 147.525 -0.021655 147.763 0.0438451 147.986C0.109345 148.209 0.244924 148.405 0.43051 148.545C0.496357 148.593 0.567651 148.633 0.642914 148.665C1.12827 148.876 1.51896 149.259 1.7406 149.74C1.96225 150.22 1.99938 150.766 1.84494 151.272C1.81995 151.35 1.8042 151.43 1.79803 151.511C1.7839 151.743 1.84489 151.974 1.97193 152.168C2.09897 152.363 2.28532 152.512 2.50338 152.592C2.72144 152.672 2.95961 152.68 3.18262 152.615C3.40562 152.549 3.60159 152.414 3.74151 152.228C3.78962 152.162 3.82981 152.091 3.86121 152.016C4.0726 151.531 4.45506 151.14 4.93582 150.918C5.41657 150.697 5.96205 150.659 6.4684 150.814C6.54604 150.839 6.62634 150.855 6.70766 150.861C6.93966 150.875 7.17003 150.814 7.36467 150.687C7.5593 150.56 7.70783 150.373 7.78827 150.155C7.86871 149.937 7.87678 149.699 7.81128 149.476C7.74577 149.253 7.61018 149.057 7.42459 148.917C7.35875 148.869 7.28745 148.829 7.21219 148.798Z" fill="#4D8AF0"/>
<path opacity="0.5" d="M108.189 33.144C107.703 32.9326 107.313 32.5502 107.091 32.0694C106.869 31.5887 106.832 31.0432 106.987 30.5368C107.012 30.4592 107.027 30.3789 107.034 30.2976C107.048 30.0656 106.987 29.8352 106.86 29.6406C106.733 29.4459 106.546 29.2974 106.328 29.217C106.11 29.1365 105.872 29.1285 105.649 29.194C105.426 29.2595 105.23 29.3951 105.09 29.5806C105.042 29.6465 105.002 29.7178 104.97 29.793C104.759 30.2784 104.377 30.6691 103.896 30.8907C103.415 31.1124 102.87 31.1495 102.363 30.9951C102.286 30.9701 102.205 30.9543 102.124 30.9482C101.892 30.934 101.662 30.995 101.467 31.1221C101.272 31.2491 101.124 31.4355 101.043 31.6535C100.963 31.8716 100.955 32.1097 101.02 32.3327C101.086 32.5557 101.222 32.7517 101.407 32.8916C101.473 32.9398 101.544 32.9799 101.619 33.0113C102.105 33.2227 102.496 33.6052 102.717 34.086C102.939 34.5667 102.976 35.1122 102.822 35.6185C102.797 35.6962 102.781 35.7765 102.775 35.8578C102.76 36.0898 102.821 36.3202 102.948 36.5148C103.076 36.7094 103.262 36.858 103.48 36.9384C103.698 37.0188 103.936 37.0269 104.159 36.9614C104.382 36.8959 104.578 36.7603 104.718 36.5747C104.766 36.5089 104.806 36.4376 104.838 36.3623C105.049 35.877 105.432 35.4863 105.912 35.2646C106.393 35.043 106.939 35.0058 107.445 35.1603C107.523 35.1853 107.603 35.201 107.684 35.2072C107.916 35.2213 108.147 35.1604 108.341 35.0333C108.536 34.9063 108.684 34.7199 108.765 34.5018C108.845 34.2838 108.853 34.0456 108.788 33.8226C108.722 33.5996 108.587 33.4036 108.401 33.2637C108.335 33.2156 108.264 33.1754 108.189 33.144Z" fill="#4D8AF0"/>
<path opacity="0.5" d="M231.474 333.139C230.989 332.927 230.598 332.545 230.376 332.064C230.155 331.583 230.117 331.038 230.272 330.532C230.297 330.454 230.313 330.374 230.319 330.292C230.333 330.06 230.272 329.83 230.145 329.635C230.018 329.441 229.832 329.292 229.613 329.212C229.395 329.131 229.157 329.123 228.934 329.189C228.711 329.254 228.515 329.39 228.375 329.575C228.327 329.641 228.287 329.712 228.256 329.788C228.044 330.273 227.662 330.664 227.181 330.885C226.7 331.107 226.155 331.144 225.648 330.99C225.571 330.965 225.49 330.949 225.409 330.943C225.177 330.929 224.947 330.99 224.752 331.117C224.558 331.244 224.409 331.43 224.329 331.648C224.248 331.866 224.24 332.104 224.306 332.327C224.371 332.55 224.507 332.746 224.692 332.886C224.758 332.934 224.829 332.975 224.905 333.006C225.39 333.217 225.781 333.6 226.002 334.081C226.224 334.561 226.261 335.107 226.107 335.613C226.082 335.691 226.066 335.771 226.06 335.852C226.046 336.084 226.107 336.315 226.234 336.51C226.361 336.704 226.547 336.853 226.765 336.933C226.983 337.014 227.221 337.022 227.444 336.956C227.667 336.891 227.863 336.755 228.003 336.569C228.051 336.504 228.092 336.432 228.123 336.357C228.334 335.872 228.717 335.481 229.198 335.259C229.678 335.038 230.224 335.001 230.73 335.155C230.808 335.18 230.888 335.196 230.969 335.202C231.201 335.216 231.432 335.155 231.626 335.028C231.821 334.901 231.97 334.715 232.05 334.497C232.13 334.279 232.139 334.04 232.073 333.817C232.008 333.594 231.872 333.398 231.686 333.258C231.62 333.21 231.549 333.17 231.474 333.139Z" fill="#4D8AF0"/>
<path opacity="0.5" d="M445.818 264.183C447.763 264.183 449.34 262.606 449.34 260.661C449.34 258.715 447.763 257.138 445.818 257.138C443.872 257.138 442.295 258.715 442.295 260.661C442.295 262.606 443.872 264.183 445.818 264.183Z" fill="#F55F44"/>
<path opacity="0.5" d="M368.324 286.492C370.269 286.492 371.846 284.915 371.846 282.97C371.846 281.024 370.269 279.447 368.324 279.447C366.378 279.447 364.801 281.024 364.801 282.97C364.801 284.915 366.378 286.492 368.324 286.492Z" fill="#4D8AF0"/>
<path opacity="0.5" d="M60.6972 321.129C62.6426 321.129 64.2197 319.552 64.2197 317.607C64.2197 315.662 62.6426 314.085 60.6972 314.085C58.7519 314.085 57.1748 315.662 57.1748 317.607C57.1748 319.552 58.7519 321.129 60.6972 321.129Z" fill="#47E6B1"/>
<path opacity="0.5" d="M241.516 7.04489C243.461 7.04489 245.039 5.46783 245.039 3.52244C245.039 1.57705 243.461 0 241.516 0C239.571 0 237.994 1.57705 237.994 3.52244C237.994 5.46783 239.571 7.04489 241.516 7.04489Z" fill="#F55F44"/>
<path d="M120.285 209.879L106.195 231.014C106.195 231.014 110.892 252.735 214.804 252.148C318.716 251.561 326.935 231.014 326.935 231.014L307.562 202.834L248.267 162.326L120.285 209.879Z" fill="#007BFF"/>
<path opacity="0.15" d="M120.285 209.879L106.195 231.014C106.195 231.014 110.892 252.735 214.804 252.148C318.716 251.561 326.935 231.014 326.935 231.014L307.562 202.834L248.267 162.326L120.285 209.879Z" fill="black"/>
<path d="M419.986 131.505L235.057 213.108L9.62109 131.505L216.271 37.5728L317.712 84.3449L321.346 86.024L419.986 131.505Z" fill="#007BFF"/>
<path opacity="0.15" d="M419.986 131.505L235.057 213.108L9.62109 131.505L216.271 37.5728L317.712 84.3449L321.346 86.024L419.986 131.505Z" fill="black"/>
<path d="M325.174 151.066L321.652 151.277L317.712 84.3448L321.346 86.0239L325.174 151.066Z" fill="#F5F5F5"/>
<path d="M122.633 131.211L106.195 231.014C106.195 231.014 224.197 192.854 326.935 231.014L311.671 125.34C311.671 125.34 173.709 108.315 122.633 131.211Z" fill="#007BFF"/>
<path d="M324.881 171.426C334.283 171.426 341.906 166.169 341.906 159.684C341.906 153.199 334.283 147.943 324.881 147.943C315.478 147.943 307.855 153.199 307.855 159.684C307.855 166.169 315.478 171.426 324.881 171.426Z" fill="#F5F5F5"/>
<defs>
<linearGradient id="paint0_linear" x1="136.583" y1="251.794" x2="155.814" y2="213.036" gradientUnits="userSpaceOnUse">
<stop stop-color="#808080" stop-opacity="0.25"/>
<stop offset="0.53514" stop-color="#808080" stop-opacity="0.12"/>
<stop offset="1" stop-color="#808080" stop-opacity="0.1"/>
</linearGradient>
</defs>
</svg>
